<svg xmlns="http://www.w3.org/2000/svg" version="2" viewBox="0 0 2000 2000">
  <defs>
    <radialGradient id="c" cx="1000" cy="1000" r="972.973" fx="1000" fy="1000" gradientUnits="userSpaceOnUse" href="#a"/>
    <radialGradient id="d" cx="1511.945" cy="558.765" r="1000" fx="1511.945" fy="558.765" gradientUnits="userSpaceOnUse" href="#b"/>
    <linearGradient id="b">
      <stop offset=".4" style="stop-color:#cae034;stop-opacity:0"/>
      <stop offset="1" style="stop-color:#751e9b;stop-opacity:.5"/>
    </linearGradient>
    <linearGradient id="a">
      <stop offset=".8" style="stop-color:#5af9e4;stop-opacity:0"/>
      <stop offset="1" style="stop-color:#378bc0;stop-opacity:.5"/>
    </linearGradient>
  </defs>
  <g data-label="ocean">
    <path d="M1698.084 1587.547a912.432 912.432 0 0 1-1285.631 110.537A912.432 912.432 0 0 1 301.916 412.453a912.432 912.432 0 0 1 1285.631-110.537 912.432 912.432 0 0 1 110.537 1285.631Z" style="fill:#416df4"/>
    <path d="M1614.873 1517.512c-146.097 173.584-188.978 333.894-541.592 334.806-226.882.587-420.545-87.384-594.128-233.482-173.584-146.098-333.829-337.848-353.264-563.897-19.436-226.049 89.365-418.878 235.463-592.461C507.45 288.894 691.92 193.599 926.719 147.682c222.665-43.545 433.257 64.237 606.84 210.335 173.584 146.098 299.423 322.428 318.858 548.477 19.435 226.049-91.446 437.435-237.543 611.018z" style="fill:#0b92f0"/>
    <path d="M1503.926 1424.133c-112.487 133.65-253.96 230.166-447.503 232.104-174.679 1.749-332.212-61.303-465.862-173.79-133.65-112.487-251.646-268.654-266.61-442.7-14.964-174.044 59.636-330.23 172.123-463.88 112.487-133.65 264.692-254.98 438.736-269.944 174.045-14.965 355.673 77.664 489.323 190.15 133.65 112.488 203.585 265.436 218.549 439.48 14.964 174.046-26.269 354.93-138.756 488.58z" style="fill:#2ba1f3"/>
  </g>
  <g data-label="land">
    <path d="M1589.337 298.785C1307.07 52.752 1189.88 82.578 930.39 104.89c-259.488 22.31-533.22 84.837-657.094 313.938-85.129 157.445 256.332 12.32 235.478 149.296-71.232 467.858 235.558 334.495 14.575 494.914-158.77 115.256-190.837 146.063-184.019 444.447 2.692 117.819 265.171 275.477 426.52 339.88 94.3 37.64 287.533 159.222 400.192 57.834 299.331-269.382 389.517-100.577 557.227-299.839 82.697-98.255 130.607-222.397 169.317-342.283 39.794-123.245 42.28-255.054 30.97-386.59-8.364-97.282-633.668 383.946-808.517 256.657-30.494-22.2-372.538-530.757-303.193-683.291 88.539-194.753 577.967 247.13 581.876-55.983 2.7-209.485 289.115-13.585 195.614-95.084zM1177.642 1487.66c145.203 67.426-108.665 70.794-153.788 124.41-45.126 53.615-237.989-14.148-330.447-91.966-92.46-77.82-34.31-211 164.851-81.255 103.893 67.682 214.715.206 319.384 48.81z" style="fill:#74f7ac"/>
    <path d="M1403.206 221.403c28.377-105.647-218.059-92.426-464.67-71.223-246.61 21.204-506.758 36.605-624.484 254.337-80.904 149.63 290.223-40.082 270.403 90.096-67.696 444.64 275.66 439.603 65.643 592.061-150.89 109.537-209.851 125.867-203.372 409.443 2.559 111.972 239.064 230.732 392.405 291.938 89.622 35.773 247.369 65.866 354.437-30.49 284.476-256.014 339.112 7.996 498.5-181.377 78.592-93.38 167.797-205.767 160.914-325.298-3.614-62.748-26.989-208.647-120.76-125.283-307.541 273.405-1028.098 16.374-919.484-69.3 196.797-155.231-282.75-460.692-38.653-694.812 146.734-140.736 541.673 272.219 545.387-15.851 2.567-199.09 53.156-10.396 83.734-124.24zM1173.517 1464.33c137.997 64.08-51.481 137.199-94.366 188.154-42.886 50.954-329.759-23.804-417.63-97.76-87.87-73.958-32.606-368.85 156.672-245.543 98.737 64.323 255.85 108.957 355.324 155.149z" style="fill:#4df579"/>
    <path d="M949.728 215.168c-226.812 19.501-358.04-67.043-466.314 133.207-63.158 116.811 175.78 61.904 255.555-24.003 139.38-150.093 313.838 97.576 437.733-16.697 228.784-211.02-49.123-125.47-226.974-92.507ZM1766.951 1297.086c5.833-57.51-73.393-62.793-182.89-26.368-189.668 63.096-451.496-14.764-444.772 43.885 25.58 223.095 288.413 81.746 432.972 272.11 39.568 52.106 185.72-201.182 194.69-289.627z" style="fill:#3beb8c"/>
  </g>
  <g data-label="clouds">
    <path d="M1176.644 107.88c-43.48 29.2-227.945-55.757-251.773 13.734-41.002 119.575-235.145 81.23-250.858 24.72C662.754 105.841 833.03 45.465 949.59 33.721c125.773-12.672 275.747 41.459 227.054 74.159ZM268.429 530.86c-43.48 33.789-99.77 365.231-123.598 140.077-13.304-125.707 189.665-277.661 173.953-334.171-11.259-40.492 21.686-69.74 138.246-81.483C582.803 242.61 314.743 494.87 268.43 530.86z" style="fill:#e6dcfe"/>
    <path d="M242.534 864.91c-77.192 40.488-99.77 365.232-123.598 140.078-13.304-125.708 104.024-193.366 149.352-230.59 87.143-71.567 28.575-109.866 55.38-223.908 17.316-73.664 130.189 203.578-81.134 314.42zM582.01 1765.138c0 90.1-48.224-46.612-174.794-46.612-50.41 0-93.833-68.03-153.288-95.45-28.792-13.279-52.147-30.202-58.866-58.198-10.766-44.854-45.505-89.177-45.505-126.022 0-59.682 24.78 43.661 124.06 70.982 49.83 13.712 93.46 86.98 136.189 86.98 126.57 0 172.204 78.22 172.204 168.32zM1745.867 400.387c-10.548 24.8-57.097-10.118-107.06-17.37-25.604-3.716-37.927 23.304-66.687 11.072-84.886-36.105-140.767-95.78-124.814-133.288 15.954-37.508 60.447 15.86 145.333 51.966 84.886 36.105 169.182 50.112 153.228 87.62zM1916.564 696.954c0 56.492 40.992 105.949 10.244 105.949-30.749 0-41.942-67.768-41.942-124.26 0-56.491-8.908-52.326-19.4-81.229-19.605-54.017 51.098 43.049 51.098 99.54zM1708.93 895.095c-91.268 45.347-60.444-91.002-110.408-98.254-25.602-3.717-105.675 109.365-134.436 97.132-84.886-36.104-103.316-129.452-62.557-129.625 208.217-.886 65.795-67.915 150.826-103.676 119.227-50.143 249.985 188.012 156.574 234.423zM1444.039 1640.245c-26.479-4.933-118.551-88.57-14.293-115.472 133.323-34.404 141.961 20.32 114.106 19.618-79.53-2.004-90.51 42.319-54.24 54.6 50.32 17.04 94.547 20.274 127.643-7.803 69.133-58.65 108.622-168.382-8.982-217.546-69.274-28.96-243.256 34.38-261.51 6.16-55.733-86.157 193.464-120.773 296.17-94.73 41.313 10.477 109.762 80.583 95.726 172.245-3.67 23.968-72.544 138.636-110.641 171.324-72.877 62.529-166.708 14.823-183.98 11.604zM1363.108 312.75c0 36.362-110.26 62.743-177.118 117.798-44.902 36.976-31.527 114.025-97.032 114.025-163.038 0-312.603-114.277-312.602-175.059 0-37.65 90.484-47.754 133.431 58.068 19.547 48.164 119.87-48.187 181.918-48.187 163.038 0 271.403-127.426 271.403-66.644zM1001.515 1600.703c0 57.921-61.95 6.474-125.592 6.474-63.643 0-104.877 51.447-104.877-6.474 0-57.922 41.234-73.802 104.877-73.802 63.642 0 125.592 15.88 125.592 73.802zM1958.56 1122.933c0 27.596-31.64 45.132-42.518 71.616-34.784 84.693-33.288 173.095-59.98 173.095-35.039 0 33.664-128.868 33.664-244.711 0-57.062 23.134-72.549 32.403-110.365 9.548-38.955-12.86-89.81-5.213-105.861 37.629-78.981 41.643 100.383 41.643 216.226zM1322.618 1912.742c0 17.162-77.543 12.947-174.794 12.947-97.251 0-208.458 27.52-208.458 10.358 0-17.161 115.091-69.917 212.342-69.917 38.97 0 32.719 21.56 60.89 28.333 42.133 10.128 110.02 7.994 110.02 18.279z" style="fill:#e6dcfe"/>
  </g>
  <g data-label="atmosphere">
    <circle data-label="air" cx="1000" cy="1000" r="972.973" style="fill:url(#c)"/>
    <circle data-label="light" cx="1000" cy="1000" r="1000" style="fill:url(#d)"/>
  </g>
</svg>
