<svg
   viewBox="0 0 1024 4096"
   version="2"
>
  <path
     style="fill:none;stroke-width:24;stroke-dasharray:96,48,24,72"
     d="m 546.13333,14.37193 c -8.15604,194.78846 -785.66086,392.90982 -57.87127,708.59056 671.34144,291.19621 -924.52934,276.79321 235.15508,517.15081 444.17246,92.0598 -802.343363,339.2119 -636.614952,415.3018 213.848542,98.1831 542.000472,74.8501 738.185642,128.0882 233.67677,63.4121 -912.862425,342.48 -308.4979,456.0569 512.91487,96.3911 526.04697,238.4645 189.64847,905.765 -212.93244,422.3858 -379.78828,-189.4718 -561.01077,226.6682 -106.087941,243.609 459.97725,86.6761 364.71123,659.368"
      />
  <g
     data-label="points">
    <circle
       cx="177"
       cy="451"
       r="67" />
    <circle
       cx="661"
       cy="849"
       r="67" />
    <circle
       cx="289"
       cy="1073"
       r="67" />
    <circle
       cx="817"
       cy="1287"
       r="67" />
    <circle
       cx="475"
       cy="1461"
       r="67" />
    <circle
       cx="841"
       cy="1805"
       r="67" />
    <circle
       cx="102.78052"
       cy="1629.6376"
       r="67" />
    <circle
       cx="343.19681"
       cy="2152.8965"
       r="67" />
    <circle
       cx="674.53906"
       cy="2279.053"
       r="67" />
    <circle
       cx="843.82837"
       cy="2875.8022"
       r="67" />
    <circle
       cx="641.26996"
       cy="3248.2673"
       r="67" />
    <circle
       cx="275.31454"
       cy="3213.5566"
       r="67" />
    <circle
       cx="133.89319"
       cy="3493.571"
       r="67" />
    <circle
       cx="493.10342"
       cy="3790.5559"
       r="67" />
    <circle
       cx="426.75735"
       cy="160.41422"
       r="67" />
    <circle
       cx="931.72791"
       cy="2511.1006"
       r="67" />
  </g>
</svg>
