<svg xmlns="http://www.w3.org/2000/svg" viewBox="0 0 200 300">
  <defs>
    <clipPath id="c">
      <use href="#a"/>
    </clipPath>
    <clipPath id="d">
      <use href="#b"/>
    </clipPath>
  </defs>
  <g data-label="Hair_back">
    <path d="M108.475 15.204c-30.293-.001-53.102 26.883-53.106 39.118l-8.338 132.473c55.25-24.91 94.603-22.012 122.875 0l-8.338-132.473c-.003-12.233-22.8-39.117-53.093-39.118Z" style="fill:#5044cc" transform="translate(-8.127 -9.432)"/>
    <path d="M163.463 49.102 151.95 68.55l3.29 96.95-10.257 33.864 29.027-9.289z" style="fill:#6e67ff" transform="translate(-8.127 -9.432)"/>
  </g>
  <g data-label="Torso">
    <path data-label="body" d="m108.27 182.692-86.805 24.215c-17.013 17.588-4.417 72.746-.608 102.525h174.825c3.809-29.779 16.404-84.937-.608-102.525z" style="fill:#0f1c2d" transform="translate(-8.27 -9.432)"/>
    <g data-label="shoulder_pads">
      <path d="m11.64 90.088 18.577-4.641 2.893 3.934-25.015 6.86zM88.296 90.088 69.72 85.447l-2.893 3.934 25.015 6.86z" style="fill:#aead71" transform="matrix(2.38817 0 0 2.38817 -19.333 -22.526)"/>
    </g>
    <path data-label="neck" d="m81.496 128.107 3.128 62.988s11.162 21.39 23.645 21.39c12.484 0 23.646-21.39 23.646-21.39l3.128-62.988h-26.774z" style="fill:#f8ee68" transform="translate(-8.27 -9.432)"/>
    <g data-label="flap" transform="matrix(2.38817 0 0 2.38817 -19.749 -22.526)">
      <path d="m30.25 98.25 46 6.875-1.345 22.67-35.479-7.527-8.863-10.717z" style="fill:#1d3655"/>
      <path d="m30.563 109.552 1.294 25.5h42.07l.978-7.257-35.479-7.527z" style="fill:#132439"/>
      <circle cx="35.813" cy="105.563" r="1.313" style="fill:#aead71"/>
      <circle cx="35.938" cy="116.563" r="1.313" style="fill:#aead71"/>
      <circle cx="35.938" cy="126.438" r="1.313" style="fill:#aead71"/>
      <path d="M58.699 102.516h19.25v1.875h-19.25z" style="fill:#aead71" transform="rotate(4.564)"/>
      <path d="M59.74 111.547h18.682v1.875H59.74z" style="fill:#aead71" transform="matrix(.99663 .082 -.07722 .99701 0 0)"/>
      <path d="M60.584 120.911h17.983v1.874H60.584z" style="fill:#aead71" transform="matrix(.99637 .08518 -.07433 .99723 0 0)"/>
    </g>
    <g data-label="collar" transform="matrix(2.38817 0 0 2.38817 -19.748 -22.526)">
      <path d="m46.71 82.687.1 10.655c-.424.34-.722.71-.978.648-.872-.213-1.59-1.256-2.031-1.949" style="fill:#0a121d"/>
      <path d="m60.125 80.75-8.375 7.5 1.125 9.25L63.25 83.875Z"/>
      <path d="m46.676 82.699-6.863-5.772-.028-.635-.887-.134-2.386 10.96 6.275 11.049Z" style="fill:#112534"/>
      <path d="m38.898 76.158 8.124 6.513-1.381 3.447-7.682-7.808z" style="fill:#aead71"/>
      <path d="m53.576 82.687-.099 10.655c.424.34.721.71.977.648.873-.213 1.59-1.256 2.032-1.949" style="fill:#0a121d"/>
      <path d="m53.609 82.699 6.863-5.772.028-.635.887-.134 2.386 10.96-6.275 11.049z" style="fill:#112534"/>
      <path d="m61.387 76.158-8.125 6.513 1.382 3.447 7.681-7.808z" style="fill:#aead71"/>
      <ellipse cx="56.566" cy="87.716" rx=".729" ry="1.138" style="fill:#aead71"/>
      <ellipse cx="58.16" cy="93.87" rx=".729" ry="1.138" style="fill:#aead71"/>
    </g>
    <path d="m176.496 258.332 20.712-19.528-19.105-7.541z" style="fill:#214762" transform="translate(-8.27 -9.432)"/>
    <path data-label="path30" d="m16.87 250.179 28.2-9.955-.365 67.352Z" style="fill:#172641" transform="translate(-8.27 -9.432)"/>
  </g>
  <g data-label="Face">
    <path data-label="skin" d="M108.14 34.11c-59.779 0-50.868 48.433-52.497 67.083.437 16.633 1.516 31.107 2.5 35.002 2.549 10.083 35.559 38.798 49.984 38.798 14.425 0 47.44-28.715 49.988-38.798.986-3.9 2.06-18.4 2.496-35.053-1.61-18.685 7.26-67.032-52.47-67.032z" style="fill:#f8f38b" transform="translate(-8.127 -9.432)"/>
    <path data-label="shadow" d="M159.062 100.973s-24.795 27.09-35.59 13.856c-20.766-25.455-14.236-9.126-36.597 6.715-5.124 3.63-32.078-15.04-32.173-18.538-.26-9.482 12.753-21.044 31.742-15.74 23.314 6.513 22.98 7.512 47.574-.498 11.877-1.654 16.352 7.942 25.044 14.205z" style="fill:#826500;fill-opacity:.045884" transform="translate(-8.127 -9.432)"/>
    <path data-label="flush" d="M159.689 117.908c-.803 7.914-40.67 36.927-51.715 36.015-13.53-1.118-58.745-27.776-58.527-35.72.84-30.733 31.102 2.092 38.723-5.244 19.076-18.36 19.608-17.61 36.049-1.442 9.723 9.563 37.889-17.47 35.47 6.391z" style="fill:#f7ac9f;fill-opacity:.0917679" transform="translate(-8.127 -9.432)"/>
    <path data-label="mouth" d="M102.406 148.53c-1.36.064-2.646.85-8.998 4.1-.608.312 6.59 3.352 14.719 3.351 8.129.001 15.327-3.04 14.719-3.35-6.352-3.25-7.638-4.037-8.998-4.1-1.059-.05-2.165.338-5.721.338s-4.662-.388-5.72-.338zm5.72 2.13c5.516 0 6.547.692 7.947 1.124a156.323 156.323 0 0 0-7.946-.193c-3.228 0-5.96.09-7.946.193 1.4-.431 2.431-1.125 7.946-1.125z" style="fill:#cb1797" transform="translate(-8.127 -9.432)"/>
    <g data-label="nose">
      <path d="M433.326 519.938c.009.193-.412-1.12-1.141-.437-.633.593-.808.479-1.162.047-.486-.592-1.23.476-1.232.337-.006-.473.12-.911 1.097-1.41.05-.025.377-2.782.76-2.775.383.007.548 2.72.656 2.765 1.048.435 1.022.713 1.022 1.473z" style="fill:#fde880" transform="matrix(6.19238 0 0 6.19238 -2572.376 -3093.288)"/>
      <path d="M433.047 519.943c0 .152-.19.015-.452.015-.261 0-.494.137-.494-.015 0-.152.212-.276.473-.276s.473.124.473.276zM431.134 519.883c0 .153-.288.09-.549.09-.261 0-.397.063-.397-.09 0-.152.212-.276.473-.276s.473.124.473.276z" style="fill:#9d7a00" transform="matrix(6.19238 0 0 6.19238 -2572.376 -3093.288)"/>
      <path d="M433.198 520.025c-.073.158-.436-.627-1.104 0-.581.545-.741.44-1.066.043-.446-.543-.982 0-1.07-.085-.283-.272.362-1.77 1.576-.041 1.529-1.594 1.786-.18 1.713-.023z" style="fill:#e8de6a" transform="matrix(6.19238 0 0 6.19238 -2572.376 -3093.288)"/>
    </g>
    <g data-label="eye_right">
      <g data-label="ball" clip-path="url(#c)" transform="matrix(7.0987 0 0 7.0987 -2967.961 -3557.451)">
        <path data-label="white" id="a" d="M433.92 515.501c-.018-.923.63-1.568 1.753-1.644 1.572-.107 2.182.028 3.356 1.257 0 0 .109.805-1.198 1.58-1.035.613-3.86 1.277-3.91-1.193z" style="fill:#fff3ea" transform="matrix(.87233 0 0 .87233 55.701 65.387)"/>
        <g data-label="iris">
          <ellipse data-label="path5" cx="436.104" cy="515.262" rx="1.483" ry="1.521" style="fill:#9a57f9"/>
          <circle cx="436.116" cy="515.338" r="1.014" style="fill:#442457"/>
          <ellipse cx="436.942" cy="515.356" rx=".378" ry=".221" style="fill:#fff"/>
        </g>
        <path data-label="shadow" d="M438.821 515.42c-.006.477-1.095-.675-2.65-.675-1.553 0-2.528.824-2.528.347 0-.478 1.179-1.746 2.733-1.746 1.199.049 2.463.634 2.445 2.074z" style="fill:#1a023d;fill-opacity:.415655"/>
      </g>
      <path data-label="lash_top" d="M433.356 514.937c.145-.225.18-.358.336-.473.726-.54 1.368-.983 2.57-.866.189.037 1.016-.067 1.207-.219-.233.211-.07.326.129.295.42-.064.744-.24.744-.24l-.297.4c.26.138.306.07.66.001l-.226.196c.196.234.506.002 1.011-.113-.323.242-.502.309-.541.472.079.152.674.882 1.003.918.329.036-.652.004-.912-.178s-.252-.338-.798-.648c-.545-.31-1.59-.543-2.438-.504-1.313.061-1.122.286-2.448.959z" style="fill:#39251d" transform="matrix(6.19238 0 0 6.19238 -2572.555 -3093.288)"/>
      <path data-label="lash_bot" d="M435.942 517.223c.355-.016.592-.088 1.122-.247.53-.16 1.007-.456 1.193-.621l.467-.217-.636.453.17.026c-.398.104-.506.154-.814.34l.14.067c-.276-.02-.21-.018-.794.124l.1.042c-.253-.039-1.1.422-2.022.045 0 0 .72.006 1.074-.011z" style="fill:#39251d" transform="matrix(6.19238 0 0 6.19238 -2572.555 -3093.288)"/>
      <path data-label="crease" d="M433.857 513.61s1.963-.353 2.86-.219c.895.134 1.952.586 1.952.586s-1.113-.634-2.074-.73c-.961-.096-2.738.363-2.738.363z" style="fill:#573f33" transform="matrix(6.19238 0 0 6.19238 -2572.555 -3093.288)"/>
    </g>
    <g data-label="eye_left">
      <g data-label="ball" clip-path="url(#d)" transform="matrix(-7.0987 0 0 7.0987 3167.962 -3557.451)">
        <path data-label="white" id="b" d="M433.92 515.501c-.018-.923.63-1.568 1.753-1.644 1.572-.107 2.182.028 3.356 1.257 0 0 .109.805-1.198 1.58-1.035.613-3.86 1.277-3.91-1.193z" style="fill:#fff3ea" transform="matrix(.87233 0 0 .87233 55.701 65.387)"/>
        <g data-label="iris">
          <ellipse cx="436.104" cy="515.262" rx="1.483" ry="1.521" style="fill:#9a57f9"/>
          <circle cx="436.116" cy="515.338" r="1.014" style="fill:#442457"/>
          <ellipse cx="436.942" cy="515.356" rx=".378" ry=".221" style="fill:#fff"/>
        </g>
        <path data-label="shadow" d="M438.821 515.42c-.006.477-1.095-.675-2.65-.675-1.553 0-2.528.824-2.528.347 0-.478 1.179-1.746 2.733-1.746 1.199.049 2.463.634 2.445 2.074z" style="fill:#1a023d;fill-opacity:.415655"/>
      </g>
      <path data-label="lash_top" d="M433.356 514.937c.145-.225.18-.358.336-.473.726-.54 1.368-.983 2.57-.866.189.037 1.016-.067 1.207-.219-.233.211-.07.326.129.295.42-.064.744-.24.744-.24l-.297.4c.26.138.306.07.66.001l-.226.196c.196.234.506.002 1.011-.113-.323.242-.502.309-.541.472.079.152.674.882 1.003.918.329.036-.652.004-.912-.178s-.252-.338-.798-.648c-.545-.31-1.59-.543-2.438-.504-1.313.061-1.122.286-2.448.959z" style="fill:#39251d" transform="matrix(-6.19238 0 0 6.19238 2772.556 -3093.288)"/>
      <path data-label="lash_bot" d="M435.942 517.223c.355-.016.592-.088 1.122-.247.53-.16 1.007-.456 1.193-.621l.467-.217-.636.453.17.026c-.398.104-.506.154-.814.34l.14.067c-.276-.02-.21-.018-.794.124l.1.042c-.253-.039-1.1.422-2.022.045 0 0 .72.006 1.074-.011z" style="fill:#39251d" transform="matrix(-6.19238 0 0 6.19238 2772.556 -3093.288)"/>
      <path data-label="crease" d="M433.857 513.61s1.963-.353 2.86-.219c.895.134 1.952.586 1.952.586s-1.113-.634-2.074-.73c-.961-.096-2.738.363-2.738.363z" style="fill:#573f33" transform="matrix(-6.19238 0 0 6.19238 2772.556 -3093.288)"/>
    </g>
    <g data-label="ear_left">
      <path d="M441.791 512.768c-.395-.014-1.178 1.143-1.795 1.597-.055 2.1-.175 3.962-.3 4.98.645-.56 1.386-.09 1.411-1.072.03-1.134 1.32-1.24.924-5.086-.03-.294-.116-.415-.24-.42z" style="fill:#e7e47e" transform="matrix(-6.19238 0 0 6.19238 2772.134 -3093.288)"/>
      <path d="M441.547 516.625c-.603 1.165-.504 1.366-.974 1.61-1.144.593-.502-.477-.271-1.368.044-.174-.257-.233-.286-.422-.258-1.64.639-1.804.957-2.226.83-1.106 1.249 1.102.574 2.406z" style="fill:#d1d870" transform="matrix(-6.19238 0 0 6.19238 2772.134 -3093.288)"/>
      <path d="M440.925 516.863c.397.706-.544 1.698-.795 1.555-.462-.263-.143-.68.151-1.27.26-.517-.27-.521-.275-.734-.013-.596-.1-1.295.479-1.398.578-.104.042 1.141.44 1.847zM441.869 515.165c-.01.524-.336 1.531-.481 1.496-.13-.03-.047-.62.169-1.106.268-.602-.357-1.689-.042-1.64.226.035.362.817.354 1.25z" style="fill:#c4ca40" transform="matrix(-6.19238 0 0 6.19238 2772.134 -3093.288)"/>
    </g>
    <g data-label="eyebrows">
      <path data-label="brow_right" d="M433.266 512.609c.254-.584 2.36-.767 3.583-.886 1.223-.12 2.456.642 2.456.642s-1.189-.4-2.292-.304c-1.104.097-3.747.607-3.747.548z" style="fill:#724297" transform="matrix(6.19238 0 0 6.19238 -2572.555 -3093.288)"/>
      <path data-label="brow_left" d="M433.266 512.609c.254-.584 2.36-.767 3.583-.886 1.223-.12 2.456.642 2.456.642s-1.189-.4-2.292-.304c-1.104.097-3.747.607-3.747.548z" style="fill:#724297" transform="matrix(-6.19238 0 0 6.19238 2772.556 -3093.289)"/>
    </g>
  </g>
  <g data-label="Hair_mid">
    <path d="M107.81 11.608C94.661 6.154 52.13 24.061 47.73 45.449c-6.472 31.46 6.18 78.923 8.249 55.84 1.665-18.584-7.374-67.178 52.502-67.178 59.875 0 50.813 48.594 52.478 67.179 2.068 23.082 14.744-24.382 8.273-55.84-4.4-21.39-49.071-43.046-61.423-33.842Z" style="fill:#5949e6" transform="translate(-8.127 -9.432)"/>
    <path d="M125.564 24.49c14.847-.021 26.557 9.812 35.194 19.843 8.637 10.031 22.458 130.313 22.458 130.313l-21.12 18.786 7.702-37.604c-4.365-44.005-8.293-98.928-31.884-105.935-22.888-6.798-36.38 9.86-43.201-10.97-4.092-12.497 16.004-14.412 30.851-14.434Z" style="fill:#e6a8fc" transform="translate(-8.127 -9.432)"/>
    <path d="M166.025 73.637c-3.059-7.44-5.596-54.687-55.842-46.267-25.631 4.296-19.214-13.318-4.426-13.301 17.732.02 30.66 4.033 53.218 19.013 18.184 12.077 26.173 86.437 27.197 126.192.275 10.678-35.945 27.405-34.758 26.096 24.442-26.948 17.67-104.292 14.61-111.733z" style="fill:#8e95f5" transform="translate(-8.127 -9.432)"/>
  </g>
  <g data-label="Hair_front">
    <path d="M63.066 37.878c-1.935 1.161-22.834 23.609-22.834 23.609l-9.676 119.59 27.479 19.351-5.419-40.637Z" style="fill:#847eff" transform="translate(-8.127 -9.432)"/>
    <path d="m105.142 49.352-1.843-9.1s5.832-16.282-4.354-23.059c-10.186-6.776-48.84 10.413-48.84 10.413L41.2 80.838l-2.422 94.456 27.772 17.78-10.318-27.308-6.324-66.158L58.066 66.5c12.741-10.634 28.44-19.742 47.076-17.147Z" style="fill:#ab8afc" transform="translate(-8.127 -9.432)"/>
    <path d="m67.614 17.245-8.128 27.479.278-.062-17.38 73.107 19.75 28.688-20.379 42.444 17.96.629 5.649-44.935s-3.997-12.211-7.281-23.705c-2.747-9.614 19.382-59.542 27.031-75.95l3.786-.798 16.242 5.21s3.76-14.45-2.503-21.659c-6.263-7.208-35.025-10.448-35.025-10.448Z" style="fill:#bab5ff" transform="translate(-8.127 -9.432)"/>
  </g>
  <g data-label="Face_front">
    <g data-label="ear_right">
      <path d="M441.791 512.768c-.395-.014-1.178 1.143-1.795 1.597-.055 2.1-.175 3.962-.3 4.98.645-.56 1.386-.09 1.411-1.072.03-1.134 1.32-1.24.924-5.086-.03-.294-.116-.415-.24-.42z" style="fill:#e7e47e" transform="matrix(6.19238 0 0 6.19238 -2572.134 -3093.288)"/>
      <path d="M441.547 516.625c-.603 1.165-.504 1.366-.974 1.61-1.144.593-.502-.477-.271-1.368.044-.174-.257-.233-.286-.422-.258-1.64.639-1.804.957-2.226.83-1.106 1.249 1.102.574 2.406z" style="fill:#d1d870" transform="matrix(6.19238 0 0 6.19238 -2572.134 -3093.288)"/>
      <path d="M440.925 516.863c.397.706-.544 1.698-.795 1.555-.462-.263-.143-.68.151-1.27.26-.517-.27-.521-.275-.734-.013-.596-.1-1.295.479-1.398.578-.104.042 1.141.44 1.847zM441.869 515.165c-.01.524-.336 1.531-.481 1.496-.13-.03-.047-.62.169-1.106.268-.602-.357-1.689-.042-1.64.226.035.362.817.354 1.25z" style="fill:#c4ca40" transform="matrix(6.19238 0 0 6.19238 -2572.134 -3093.288)"/>
    </g>
  </g>
</svg>
