<?xml version="1.0" encoding="UTF-8" standalone="no"?>
<!-- Created with Inkscape (http://www.inkscape.org/) -->

<svg
   width="200"
   height="300"
   viewBox="0 0 200 300"
   version="1.1"
   id="svg1"
   inkscape:version="1.3 (0e150ed6c4, 2023-07-21)"
   sodipodi:docname="mona.svg"
   xmlns:inkscape="http://www.inkscape.org/namespaces/inkscape"
   xmlns:sodipodi="http://sodipodi.sourceforge.net/DTD/sodipodi-0.dtd"
   xmlns:xlink="http://www.w3.org/1999/xlink"
   xmlns="http://www.w3.org/2000/svg"
   xmlns:svg="http://www.w3.org/2000/svg">
  <sodipodi:namedview
     id="namedview1"
     pagecolor="#ffffff"
     bordercolor="#999999"
     borderopacity="1"
     inkscape:showpageshadow="0"
     inkscape:pageopacity="0"
     inkscape:pagecheckerboard="0"
     inkscape:deskcolor="#d1d1d1"
     inkscape:document-units="mm"
     inkscape:zoom="2.8284271"
     inkscape:cx="62.932504"
     inkscape:cy="122.8598"
     inkscape:window-width="1920"
     inkscape:window-height="1111"
     inkscape:window-x="-9"
     inkscape:window-y="-9"
     inkscape:window-maximized="1"
     inkscape:current-layer="g38" />
  <defs
     id="defs1">
    <clipPath
       clipPathUnits="userSpaceOnUse"
       id="clipPath12-1">
      <use
         x="0"
         y="0"
         xlink:href="#path79"
         id="use13-1" />
    </clipPath>
    <clipPath
       clipPathUnits="userSpaceOnUse"
       id="clipPath12-2">
      <use
         x="0"
         y="0"
         xlink:href="#path90"
         id="use38" />
    </clipPath>
  </defs>
  <g
     inkscape:groupmode="layer"
     id="layer4"
     inkscape:label="Hair_back"
     transform="translate(-8.1268586,-9.432228)">
    <path
       id="path137"
       style="fill:#5044cc;fill-opacity:0.983806;stroke-width:10.7265;stroke-linecap:round;stroke-linejoin:round"
       d="M 108.47472,15.20404 C 78.181946,15.202743 55.372555,42.087284 55.369399,54.321996 L 47.03128,186.79484 c 55.25017,-24.90927 94.60231,-22.01164 122.87512,0 L 161.5683,54.321996 C 161.56538,42.089054 138.76739,15.205342 108.47472,15.20404 Z"
       sodipodi:nodetypes="zccccz" />
    <path
       style="font-variation-settings:normal;vector-effect:none;fill:#6e67ff;fill-opacity:1;stroke:none;stroke-width:792.628;stroke-linecap:butt;stroke-linejoin:miter;stroke-miterlimit:4;stroke-dasharray:none;stroke-dashoffset:0;stroke-opacity:1;-inkscape-stroke:none;stop-color:#000000"
       d="m 163.46345,49.101946 -11.51393,19.4479 3.28969,96.949474 -10.25612,33.86463 29.02681,-9.28865 z"
       id="path139"
       sodipodi:nodetypes="cccccc" />
  </g>
  <g
     inkscape:groupmode="layer"
     id="layer3"
     inkscape:label="Torso"
     transform="translate(-8.2694366,-9.432228)">
    <path
       id="path3"
       style="fill:#0f1c2d;fill-opacity:1;stroke-width:3.89328;stroke-linecap:round;stroke-linejoin:round"
       inkscape:label="body"
       d="M 108.26944,182.69199 21.46475,206.90683 C 4.4524974,224.49516 17.047898,279.65342 20.857328,309.43222 H 195.68154 c 3.8094,-29.7788 16.40473,-84.93706 -0.60742,-102.52539 z" />
    <g
       id="g26"
       transform="matrix(2.3881657,0,0,2.3881657,-11.063362,-13.093495)"
       inkscape:label="shoulder_pads">
      <path
         id="rect13"
         style="fill:#aead71;stroke-width:2;stroke-linecap:round;stroke-linejoin:round"
         d="m 11.640303,90.088085 18.576944,-4.641492 2.892446,3.934073 -25.0144429,6.860241 z"
         sodipodi:nodetypes="ccccc" />
      <path
         id="path26"
         style="fill:#aead71;stroke-width:2;stroke-linecap:round;stroke-linejoin:round"
         d="m 88.296478,90.088085 -18.576944,-4.641492 -2.892446,3.934073 25.014443,6.860241 z"
         sodipodi:nodetypes="ccccc" />
    </g>
    <path
       id="rect1"
       style="fill:#f8ee68;stroke-width:3.37432;stroke-linecap:round;stroke-linejoin:round"
       d="m 81.496054,128.10682 3.127715,62.98785 c 0,0 11.162605,21.3905 23.645681,21.3905 12.48308,0 23.64566,-21.3905 23.64566,-21.3905 l 3.12775,-62.98785 h -26.77341 z"
       sodipodi:nodetypes="cczcccc"
       inkscape:label="neck" />
    <g
       id="g33"
       inkscape:label="flap"
       transform="matrix(2.3881657,0,0,2.3881657,-11.479348,-13.093495)">
      <path
         id="rect16"
         style="fill:#1d3655;fill-opacity:1;stroke-width:2;stroke-linecap:round;stroke-linejoin:round"
         d="m 30.25,98.25 46,6.875 -1.345078,22.66991 -35.478592,-7.52651 -8.86337,-10.71705 z"
         sodipodi:nodetypes="cccccc" />
      <path
         id="path32"
         style="font-variation-settings:normal;vector-effect:none;fill:#132439;fill-opacity:1;stroke:none;stroke-width:128;stroke-linecap:butt;stroke-linejoin:miter;stroke-miterlimit:4;stroke-dasharray:none;stroke-dashoffset:0;stroke-opacity:1;-inkscape-stroke:none;stop-color:#000000"
         d="m 30.562795,109.55156 1.293815,25.50009 h 42.070239 l 0.97813,-7.25665 -35.47849,-7.52653 z" />
      <circle
         style="fill:#aead71;fill-opacity:1;stroke:none;stroke-width:0.1875;stroke-linecap:round;stroke-linejoin:round"
         id="path22"
         cx="35.8125"
         cy="105.5625"
         r="1.3125" />
      <circle
         style="fill:#aead71;fill-opacity:1;stroke:none;stroke-width:0.1875;stroke-linecap:round;stroke-linejoin:round"
         id="circle22"
         cx="35.9375"
         cy="116.5625"
         r="1.3125" />
      <circle
         style="fill:#aead71;fill-opacity:1;stroke:none;stroke-width:0.1875;stroke-linecap:round;stroke-linejoin:round"
         id="circle23"
         cx="35.9375"
         cy="126.4375"
         r="1.3125" />
      <rect
         style="fill:#aead71;fill-opacity:1;stroke:none;stroke-width:2;stroke-linecap:round;stroke-linejoin:round"
         id="rect23"
         width="19.25"
         height="1.875"
         x="58.698677"
         y="102.51639"
         transform="rotate(4.5639651)" />
      <rect
         style="fill:#aead71;fill-opacity:1;stroke:none;stroke-width:1.97008;stroke-linecap:round;stroke-linejoin:round"
         id="rect24"
         width="18.68177"
         height="1.8746525"
         x="59.740265"
         y="111.54694"
         transform="matrix(0.99663296,0.08199229,-0.07722229,0.9970139,0,0)" />
      <rect
         style="fill:#aead71;fill-opacity:1;stroke:none;stroke-width:1.93264;stroke-linecap:round;stroke-linejoin:round"
         id="rect25"
         width="17.982573"
         height="1.8742391"
         x="60.584187"
         y="120.91097"
         transform="matrix(0.99636555,0.0851803,-0.07432856,0.99723381,0,0)" />
    </g>
    <g
       id="g34"
       inkscape:label="collar"
       transform="matrix(2.3881657,0,0,2.3881657,-11.478942,-13.093495)">
      <path
         style="font-variation-settings:normal;vector-effect:none;fill:#0a121d;fill-opacity:1;stroke:none;stroke-width:128;stroke-linecap:butt;stroke-linejoin:miter;stroke-miterlimit:4;stroke-dasharray:none;stroke-dashoffset:0;stroke-opacity:1;-inkscape-stroke:none;stop-color:#000000"
         d="m 46.709883,82.686728 0.09918,10.654913 c -0.423207,0.339517 -0.720975,0.711222 -0.977101,0.6487 -0.872202,-0.21291 -1.589467,-1.256679 -2.031319,-1.948933"
         id="path28"
         sodipodi:nodetypes="ccsc" />
      <path
         style="font-variation-settings:normal;vector-effect:none;fill:none;fill-opacity:1;stroke:none;stroke-width:128;stroke-linecap:butt;stroke-linejoin:miter;stroke-miterlimit:4;stroke-dasharray:none;stroke-dashoffset:0;stroke-opacity:1;-inkscape-stroke:none;stop-color:#000000"
         d="M 60.125,80.75 51.75,88.25 52.875,97.5 63.25,83.875 Z"
         id="path4" />
      <path
         style="font-variation-settings:normal;vector-effect:none;fill:#112534;fill-opacity:1;stroke:none;stroke-width:128;stroke-linecap:butt;stroke-linejoin:miter;stroke-miterlimit:4;stroke-dasharray:none;stroke-dashoffset:0;stroke-opacity:1;-inkscape-stroke:none;stop-color:#000000"
         d="M 46.676222,82.698562 39.813196,76.927381 39.78478,76.292183 38.898047,76.157824 36.511562,87.117979 42.787135,98.16652 Z"
         id="path8"
         sodipodi:nodetypes="ccccccc" />
      <path
         style="font-variation-settings:normal;vector-effect:none;fill:#aead71;fill-opacity:1;stroke:none;stroke-width:128;stroke-linecap:butt;stroke-linejoin:miter;stroke-miterlimit:4;stroke-dasharray:none;stroke-dashoffset:0;stroke-opacity:1;-inkscape-stroke:none;stop-color:#000000"
         d="m 38.898047,76.157824 8.124336,6.513279 -1.381498,3.446617 -7.68141,-7.807402 z"
         id="path16"
         sodipodi:nodetypes="ccccc" />
      <path
         style="font-variation-settings:normal;vector-effect:none;fill:#0a121d;fill-opacity:1;stroke:none;stroke-width:128;stroke-linecap:butt;stroke-linejoin:miter;stroke-miterlimit:4;stroke-dasharray:none;stroke-dashoffset:0;stroke-opacity:1;-inkscape-stroke:none;stop-color:#000000"
         d="m 53.576489,82.686728 -0.09918,10.654913 c 0.423207,0.339517 0.720975,0.711222 0.977101,0.6487 0.872202,-0.21291 1.589467,-1.256679 2.031319,-1.948933"
         id="path29"
         sodipodi:nodetypes="ccsc" />
      <path
         style="font-variation-settings:normal;vector-effect:none;fill:#112534;fill-opacity:1;stroke:none;stroke-width:128;stroke-linecap:butt;stroke-linejoin:miter;stroke-miterlimit:4;stroke-dasharray:none;stroke-dashoffset:0;stroke-opacity:1;-inkscape-stroke:none;stop-color:#000000"
         d="m 53.608588,82.698562 6.863026,-5.771181 0.02842,-0.635198 0.886733,-0.134359 2.386485,10.960155 -6.275573,11.048541 z"
         id="path19"
         sodipodi:nodetypes="ccccccc" />
      <path
         style="font-variation-settings:normal;vector-effect:none;fill:#aead71;fill-opacity:1;stroke:none;stroke-width:128;stroke-linecap:butt;stroke-linejoin:miter;stroke-miterlimit:4;stroke-dasharray:none;stroke-dashoffset:0;stroke-opacity:1;-inkscape-stroke:none;stop-color:#000000"
         d="m 61.386763,76.157824 -8.124336,6.513279 1.381498,3.446617 7.68141,-7.807402 z"
         id="path21"
         sodipodi:nodetypes="ccccc" />
      <ellipse
         style="fill:#aead71;fill-opacity:1;stroke:none;stroke-width:2;stroke-linecap:round;stroke-linejoin:round"
         id="path27"
         cx="56.565941"
         cy="87.715637"
         rx="0.72920388"
         ry="1.138" />
      <ellipse
         style="fill:#aead71;fill-opacity:1;stroke:none;stroke-width:2;stroke-linecap:round;stroke-linejoin:round"
         id="ellipse27"
         cx="58.159534"
         cy="93.869667"
         rx="0.72920388"
         ry="1.138" />
    </g>
    <path
       style="font-variation-settings:normal;vector-effect:none;fill:#214762;fill-opacity:1;stroke:none;stroke-width:367.603;stroke-linecap:butt;stroke-linejoin:miter;stroke-miterlimit:4;stroke-dasharray:none;stroke-dashoffset:0;stroke-opacity:1;-inkscape-stroke:none;stop-color:#000000"
       d="m 176.49636,258.3323 20.7114,-19.52856 -19.10518,-7.541 z"
       id="path31"
       sodipodi:nodetypes="cccc" />
    <path
       style="font-variation-settings:normal;vector-effect:none;fill:#172641;fill-opacity:1;stroke:none;stroke-width:305.693;stroke-linecap:butt;stroke-linejoin:miter;stroke-miterlimit:4;stroke-dasharray:none;stroke-dashoffset:0;stroke-opacity:1;-inkscape-stroke:none;stop-color:#000000"
       d="M 16.870413,250.1786 45.07051,240.22375 44.704876,307.5758 Z"
       id="path30"
       sodipodi:nodetypes="cccc"
       inkscape:label="path30" />
  </g>
  <g
     inkscape:label="Face"
     inkscape:groupmode="layer"
     id="layer1"
     transform="translate(-8.1268586,-9.432228)">
    <path
       id="path77"
       style="fill:#f8f38b;fill-opacity:1;stroke-width:17.3417;stroke-linecap:round;stroke-linejoin:round"
       inkscape:transform-center-x="-3.3834054e-05"
       inkscape:transform-center-y="4.8398892"
       d="m 108.14087,34.110117 c -59.779563,0 -50.868985,48.432974 -52.497688,67.083203 0.437027,16.63226 1.515665,31.10639 2.50012,35.00155 2.54852,10.0836 35.558533,38.79833 49.983568,38.79833 14.42503,0 47.43971,-28.71473 49.98823,-38.79833 0.98547,-3.89911 2.05933,-18.39928 2.49545,-35.05287 -1.60948,-18.684584 7.25951,-67.031883 -52.46968,-67.031883 z"
       inkscape:label="skin" />
    <path
       id="path88"
       style="fill:#826500;fill-opacity:0.045884;stroke-width:12.3847;stroke-linecap:round;stroke-linejoin:round"
       d="m 159.06212,100.9733 c 0,0 -24.79474,27.09005 -35.59079,13.85575 -20.76514,-25.45488 -14.23578,-9.12576 -36.596102,6.71538 -5.124074,3.6301 -32.077826,-15.0398 -32.173689,-18.53892 -0.25946,-9.481333 12.753515,-21.043224 31.742904,-15.738819 23.314007,6.512402 22.979987,7.511502 47.573087,-0.499101 11.8776,-1.653319 16.35253,7.942285 25.04459,14.20571 z"
       sodipodi:nodetypes="sssssss"
       inkscape:label="shadow" />
    <path
       id="path87"
       style="fill:#f7ac9f;fill-opacity:0.0917679;stroke-width:11.6914;stroke-linecap:round;stroke-linejoin:round"
       d="m 159.68853,117.90803 c -0.80233,7.91447 -40.66987,36.92713 -51.71443,36.01494 -13.530094,-1.1176 -58.744906,-27.77593 -58.527593,-35.72026 0.840602,-30.733035 31.102177,2.09273 38.723936,-5.24339 19.075997,-18.361195 19.607617,-17.611248 36.048137,-1.44215 9.72371,9.56313 37.88895,-17.470692 35.46995,6.39086 z"
       sodipodi:nodetypes="ssssss"
       inkscape:label="flush" />
    <path
       id="path18"
       style="fill:#cb1797;fill-opacity:1;stroke:none;stroke-width:12.3847;stroke-linecap:round;stroke-linejoin:round"
       d="m 102.40619,148.5307 c -1.36072,0.0631 -2.646135,0.85009 -8.998267,4.10005 -0.608122,0.31085 6.59035,3.3512 14.718957,3.3502 8.12863,0.001 15.32689,-3.03921 14.71896,-3.3502 -6.35212,-3.24996 -7.63754,-4.03688 -8.99825,-4.10005 -1.05834,-0.0495 -2.16443,0.33811 -5.72071,0.33874 -3.55628,-6.3e-4 -4.66236,-0.38828 -5.72069,-0.33874 z m 5.72069,2.12865 c 5.51475,-6e-5 6.54566,0.69311 7.94605,1.1248 -1.98655,-0.10273 -4.71772,-0.19328 -7.94605,-0.19328 -3.22834,0 -5.95948,0.0906 -7.94605,0.19328 1.40038,-0.43164 2.43132,-1.12486 7.94605,-1.1248 z"
       inkscape:label="mouth" />
    <g
       id="g122"
       transform="matrix(6.1923828,0,0,6.1923828,-2564.249,-3083.8562)"
       inkscape:label="nose">
      <path
         id="path82"
         style="fill:#fde880;fill-opacity:1;stroke-width:2.06135;stroke-linecap:round;stroke-linejoin:round"
         d="m 433.32576,519.93821 c 0.009,0.19229 -0.41218,-1.12105 -1.14086,-0.43768 -0.63328,0.59391 -0.80759,0.47947 -1.16188,0.0475 -0.4861,-0.59253 -1.22978,0.47569 -1.23159,0.33732 -0.006,-0.47287 0.11968,-0.91163 1.09687,-1.40966 0.0497,-0.0253 0.3767,-2.78229 0.75964,-2.77578 0.38294,0.007 0.548,2.72049 0.65638,2.76546 1.04756,0.43464 1.02144,0.71224 1.02144,1.47282 z"
         sodipodi:nodetypes="ssssszsss" />
      <path
         id="path86"
         style="fill:#9d7a00;fill-opacity:1;stroke-width:2.59819;stroke-linecap:round;stroke-linejoin:round"
         d="m 433.04714,519.94298 c 0,0.1524 -0.19108,0.0148 -0.45233,0.0148 -0.26125,0 -0.49376,0.13749 -0.49376,-0.0148 0,-0.15241 0.21179,-0.27595 0.47305,-0.27595 0.26125,0 0.47304,0.12353 0.47304,0.27595 z"
         sodipodi:nodetypes="sssss" />
      <path
         id="ellipse86"
         style="fill:#9d7a00;fill-opacity:1;stroke-width:2.59819;stroke-linecap:round;stroke-linejoin:round"
         d="m 431.13422,519.88324 c 0,0.1524 -0.28776,0.0895 -0.54901,0.0895 -0.26125,0 -0.39708,0.0629 -0.39708,-0.0895 0,-0.15241 0.21179,-0.27595 0.47305,-0.27595 0.26125,0 0.47304,0.12353 0.47304,0.27595 z"
         sodipodi:nodetypes="sssss" />
      <path
         id="path85"
         style="fill:#e8de6a;fill-opacity:1;stroke-width:1.89073;stroke-linecap:round;stroke-linejoin:round"
         d="m 433.19825,520.02479 c -0.073,0.15795 -0.43629,-0.62678 -1.10466,3e-5 -0.58086,0.54475 -0.74075,0.43978 -1.0657,0.0436 -0.44588,-0.54348 -0.982,-10e-4 -1.06988,-0.0859 -0.28321,-0.27146 0.36234,-1.769 1.57617,-0.0408 1.52869,-1.59343 1.78595,-0.18046 1.7129,-0.0226 z"
         sodipodi:nodetypes="sssscss" />
    </g>
    <g
       id="g88"
       transform="matrix(6.1923828,0,0,6.1923828,-2564.4283,-3083.8562)"
       inkscape:label="eye_right">
      <g
         id="g11"
         transform="matrix(1.1463607,0,0,1.1463607,-63.853647,-74.9571)"
         clip-path="url(#clipPath12-1)"
         inkscape:label="ball">
        <path
           id="path79"
           style="fill:#fff3ea;fill-opacity:1;stroke-width:3.20231;stroke-linecap:round;stroke-linejoin:round"
           d="m 433.92077,515.50148 c -0.0185,-0.92364 0.62899,-1.56802 1.75221,-1.64454 1.57237,-0.10713 2.18158,0.0277 3.35634,1.25747 0,0 0.10871,0.80429 -1.19846,1.57912 -1.03524,0.61367 -3.86061,1.27782 -3.91009,-1.19205 z"
           sodipodi:nodetypes="sscss"
           transform="matrix(0.87232579,0,0,0.87232579,55.701183,65.387011)"
           inkscape:label="white" />
        <g
           id="g37"
           inkscape:label="iris">
          <ellipse
             style="fill:#9a57f9;fill-opacity:1;stroke-width:1.52567;stroke-linecap:round;stroke-linejoin:round"
             id="path5"
             cx="436.10367"
             cy="515.26202"
             rx="1.482614"
             ry="1.521284"
             inkscape:label="path5" />
          <circle
             style="fill:#442457;fill-opacity:1;stroke-width:4.05659;stroke-linecap:round;stroke-linejoin:round"
             id="path6"
             cx="436.11588"
             cy="515.33777"
             r="1.0141484" />
          <ellipse
             style="fill:#ffffff;fill-opacity:1;stroke:none;stroke-width:1.38812;stroke-linecap:round;stroke-linejoin:round"
             id="path11"
             cx="436.94217"
             cy="515.35626"
             rx="0.3784126"
             ry="0.22097088" />
        </g>
        <path
           id="path14"
           style="fill:#1a023d;fill-opacity:0.415655;stroke-width:2.39516;stroke-linecap:round;stroke-linejoin:round"
           d="m 438.82113,515.41955 c -0.006,0.47759 -1.09543,-0.67486 -2.64942,-0.67486 -1.55399,0 -2.52912,0.8248 -2.52912,0.34719 0,-0.47763 1.17898,-1.74568 2.73297,-1.74568 1.19899,0.0485 2.46305,0.63364 2.44557,2.07335 z"
           sodipodi:nodetypes="sssss"
           inkscape:label="shadow" />
      </g>
      <path
         style="font-variation-settings:normal;opacity:1;vector-effect:none;fill:#39251d;fill-opacity:1;stroke:none;stroke-width:128;stroke-linecap:butt;stroke-linejoin:miter;stroke-miterlimit:4;stroke-dasharray:none;stroke-dashoffset:0;stroke-opacity:1;-inkscape-stroke:none;stop-color:#000000;stop-opacity:1"
         d="m 433.35576,514.93692 c 0.14483,-0.22523 0.18077,-0.35742 0.33594,-0.4727 0.72595,-0.53931 1.368,-0.98323 2.57107,-0.8662 0.18805,0.0371 1.01549,-0.067 1.20613,-0.21856 -0.23307,0.21084 -0.0697,0.32559 0.1289,0.29504 0.42054,-0.0647 0.74411,-0.2407 0.74411,-0.2407 l -0.29738,0.39965 c 0.26097,0.13821 0.30622,0.0702 0.66024,0.002 l -0.22607,0.19545 c 0.19594,0.23384 0.50651,0.002 1.01149,-0.11333 -0.32334,0.24283 -0.5024,0.30926 -0.54141,0.47247 0.0788,0.15229 0.67385,0.88226 1.00299,0.91812 0.32914,0.0358 -0.65199,0.004 -0.91188,-0.17796 -0.25989,-0.18209 -0.25171,-0.33799 -0.79748,-0.64854 -0.54577,-0.31056 -1.5912,-0.54256 -2.43793,-0.50331 -1.31306,0.0608 -1.12251,0.28577 -2.44872,0.95857 z"
         id="path10"
         sodipodi:nodetypes="caccscccccczzzzc"
         inkscape:label="lash_top" />
      <path
         style="font-variation-settings:normal;opacity:1;vector-effect:none;fill:#39251d;fill-opacity:1;stroke:none;stroke-width:128;stroke-linecap:butt;stroke-linejoin:miter;stroke-miterlimit:4;stroke-dasharray:none;stroke-dashoffset:0;stroke-opacity:1;-inkscape-stroke:none;stop-color:#000000;stop-opacity:1"
         d="m 435.94181,517.22344 c 0.35471,-0.0168 0.59262,-0.0882 1.12261,-0.24794 0.53,-0.15975 1.0068,-0.45549 1.19226,-0.62056 l 0.46746,-0.21674 -0.63622,0.45296 0.16986,0.0259 c -0.39751,0.10386 -0.50589,0.15441 -0.81417,0.34001 l 0.14053,0.0666 c -0.27594,-0.0206 -0.20927,-0.0172 -0.79436,0.12396 l 0.0993,0.0422 c -0.25247,-0.0388 -1.1,0.42173 -2.02109,0.0448 0,0 0.7191,0.006 1.07382,-0.0111 z"
         id="path17"
         sodipodi:nodetypes="zzccccccccczz"
         inkscape:label="lash_bot" />
      <path
         style="font-variation-settings:normal;opacity:1;vector-effect:none;fill:#573f33;fill-opacity:1;stroke:none;stroke-width:128;stroke-linecap:butt;stroke-linejoin:miter;stroke-miterlimit:4;stroke-dasharray:none;stroke-dashoffset:0;stroke-opacity:1;-inkscape-stroke:none;stop-color:#000000;stop-opacity:1"
         d="m 433.85671,513.61003 c 0,0 1.96365,-0.35285 2.85938,-0.21876 0.89573,0.13409 1.95311,0.58593 1.95311,0.58593 0,0 -1.11297,-0.63456 -2.07421,-0.73047 -0.96124,-0.0959 -2.73828,0.3633 -2.73828,0.3633 z"
         id="path23"
         sodipodi:nodetypes="czczc"
         inkscape:label="crease" />
    </g>
    <g
       id="g99"
       transform="matrix(-6.1923828,0,0,6.1923828,2780.6825,-3083.8562)"
       inkscape:label="eye_left">
      <g
         id="g91"
         transform="matrix(1.1463607,0,0,1.1463607,-63.853647,-74.9571)"
         clip-path="url(#clipPath12-2)"
         inkscape:label="ball">
        <path
           id="path90"
           style="fill:#fff3ea;fill-opacity:1;stroke-width:3.20231;stroke-linecap:round;stroke-linejoin:round"
           d="m 433.92077,515.50148 c -0.0185,-0.92364 0.62899,-1.56802 1.75221,-1.64454 1.57237,-0.10713 2.18158,0.0277 3.35634,1.25747 0,0 0.10871,0.80429 -1.19846,1.57912 -1.03524,0.61367 -3.86061,1.27782 -3.91009,-1.19205 z"
           sodipodi:nodetypes="sscss"
           transform="matrix(0.87232579,0,0,0.87232579,55.701183,65.387011)"
           inkscape:label="white" />
        <g
           id="g36"
           inkscape:label="iris">
          <ellipse
             style="fill:#9a57f9;fill-opacity:1;stroke-width:1.52567;stroke-linecap:round;stroke-linejoin:round"
             id="ellipse90"
             cx="436.10367"
             cy="515.26202"
             rx="1.482614"
             ry="1.521284" />
          <circle
             style="fill:#442457;fill-opacity:1;stroke-width:4.05659;stroke-linecap:round;stroke-linejoin:round"
             id="circle90"
             cx="436.11588"
             cy="515.33777"
             r="1.0141484" />
          <ellipse
             style="fill:#ffffff;fill-opacity:1;stroke:none;stroke-width:1.38812;stroke-linecap:round;stroke-linejoin:round"
             id="ellipse91"
             cx="436.94217"
             cy="515.35626"
             rx="0.3784126"
             ry="0.22097088" />
        </g>
        <path
           id="path91"
           style="fill:#1a023d;fill-opacity:0.415655;stroke-width:2.39516;stroke-linecap:round;stroke-linejoin:round"
           d="m 438.82113,515.41955 c -0.006,0.47759 -1.09543,-0.67486 -2.64942,-0.67486 -1.55399,0 -2.52912,0.8248 -2.52912,0.34719 0,-0.47763 1.17898,-1.74568 2.73297,-1.74568 1.19899,0.0485 2.46305,0.63364 2.44557,2.07335 z"
           sodipodi:nodetypes="sssss"
           inkscape:label="shadow" />
      </g>
      <path
         style="font-variation-settings:normal;opacity:1;vector-effect:none;fill:#39251d;fill-opacity:1;stroke:none;stroke-width:128;stroke-linecap:butt;stroke-linejoin:miter;stroke-miterlimit:4;stroke-dasharray:none;stroke-dashoffset:0;stroke-opacity:1;-inkscape-stroke:none;stop-color:#000000;stop-opacity:1"
         d="m 433.35576,514.93692 c 0.14483,-0.22523 0.18077,-0.35742 0.33594,-0.4727 0.72595,-0.53931 1.368,-0.98323 2.57107,-0.8662 0.18805,0.0371 1.01549,-0.067 1.20613,-0.21856 -0.23307,0.21084 -0.0697,0.32559 0.1289,0.29504 0.42054,-0.0647 0.74411,-0.2407 0.74411,-0.2407 l -0.29738,0.39965 c 0.26097,0.13821 0.30622,0.0702 0.66024,0.002 l -0.22607,0.19545 c 0.19594,0.23384 0.50651,0.002 1.01149,-0.11333 -0.32334,0.24283 -0.5024,0.30926 -0.54141,0.47247 0.0788,0.15229 0.67385,0.88226 1.00299,0.91812 0.32914,0.0358 -0.65199,0.004 -0.91188,-0.17796 -0.25989,-0.18209 -0.25171,-0.33799 -0.79748,-0.64854 -0.54577,-0.31056 -1.5912,-0.54256 -2.43793,-0.50331 -1.31306,0.0608 -1.12251,0.28577 -2.44872,0.95857 z"
         id="path92"
         sodipodi:nodetypes="caccscccccczzzzc"
         inkscape:label="lash_top" />
      <path
         style="font-variation-settings:normal;opacity:1;vector-effect:none;fill:#39251d;fill-opacity:1;stroke:none;stroke-width:128;stroke-linecap:butt;stroke-linejoin:miter;stroke-miterlimit:4;stroke-dasharray:none;stroke-dashoffset:0;stroke-opacity:1;-inkscape-stroke:none;stop-color:#000000;stop-opacity:1"
         d="m 435.94181,517.22344 c 0.35471,-0.0168 0.59262,-0.0882 1.12261,-0.24794 0.53,-0.15975 1.0068,-0.45549 1.19226,-0.62056 l 0.46746,-0.21674 -0.63622,0.45296 0.16986,0.0259 c -0.39751,0.10386 -0.50589,0.15441 -0.81417,0.34001 l 0.14053,0.0666 c -0.27594,-0.0206 -0.20927,-0.0172 -0.79436,0.12396 l 0.0993,0.0422 c -0.25247,-0.0388 -1.1,0.42173 -2.02109,0.0448 0,0 0.7191,0.006 1.07382,-0.0111 z"
         id="path98"
         sodipodi:nodetypes="zzccccccccczz"
         inkscape:label="lash_bot" />
      <path
         style="font-variation-settings:normal;opacity:1;vector-effect:none;fill:#573f33;fill-opacity:1;stroke:none;stroke-width:128;stroke-linecap:butt;stroke-linejoin:miter;stroke-miterlimit:4;stroke-dasharray:none;stroke-dashoffset:0;stroke-opacity:1;-inkscape-stroke:none;stop-color:#000000;stop-opacity:1"
         d="m 433.85671,513.61003 c 0,0 1.96365,-0.35285 2.85938,-0.21876 0.89573,0.13409 1.95311,0.58593 1.95311,0.58593 0,0 -1.11297,-0.63456 -2.07421,-0.73047 -0.96124,-0.0959 -2.73828,0.3633 -2.73828,0.3633 z"
         id="path99"
         sodipodi:nodetypes="czczc"
         inkscape:label="crease" />
    </g>
    <g
       id="g136"
       transform="matrix(-6.1923828,0,0,6.1923828,2780.261,-3083.8562)"
       inkscape:label="ear_left">
      <path
         id="path133"
         style="font-variation-settings:normal;opacity:1;vector-effect:none;fill:#e7e47e;fill-opacity:1;stroke:none;stroke-width:128;stroke-linecap:butt;stroke-linejoin:miter;stroke-miterlimit:4;stroke-dasharray:none;stroke-dashoffset:0;stroke-opacity:1;-inkscape-stroke:none;stop-color:#000000;stop-opacity:1"
         d="m 441.79102,512.76758 c -0.39498,-0.014 -1.17805,1.14378 -1.79493,1.59765 -0.0555,2.10001 -0.17539,3.96193 -0.30078,4.98047 0.64604,-0.55984 1.38665,-0.0901 1.41211,-1.07226 0.0294,-1.13399 1.31935,-1.24118 0.92383,-5.08594 -0.0303,-0.29459 -0.11603,-0.41552 -0.24023,-0.41992 z" />
      <path
         id="path134"
         style="fill:#d1d870;fill-opacity:1;stroke-width:2;stroke-linecap:round;stroke-linejoin:round"
         d="m 441.54687,516.625 c -0.60283,1.16494 -0.50429,1.36589 -0.97343,1.60934 -1.14426,0.59379 -0.50213,-0.4759 -0.27192,-1.36755 0.0448,-0.1734 -0.25619,-0.2326 -0.28589,-0.42148 -0.25781,-1.6398 0.6394,-1.80409 0.95703,-2.22657 0.83109,-1.10544 1.24918,1.10193 0.57421,2.40626 z"
         sodipodi:nodetypes="ssssss" />
      <path
         id="path135"
         style="fill:#c4ca40;fill-opacity:1;stroke-width:3.08844;stroke-linecap:round;stroke-linejoin:round"
         d="m 440.92488,516.863 c 0.39743,0.70555 -0.54432,1.6979 -0.79507,1.55492 -0.46145,-0.26312 -0.14305,-0.67969 0.15164,-1.26949 0.25865,-0.5177 -0.27055,-0.52171 -0.27538,-0.73433 -0.0135,-0.59636 -0.0996,-1.29461 0.47851,-1.39848 0.57811,-0.10387 0.0429,1.14183 0.4403,1.84738 z"
         sodipodi:nodetypes="zssszz" />
      <path
         id="path136"
         style="fill:#c4ca40;fill-opacity:1;stroke-width:2.93099;stroke-linecap:round;stroke-linejoin:round"
         d="m 441.86893,515.16532 c -0.009,0.52377 -0.33637,1.53077 -0.48126,1.49605 -0.12919,-0.0313 -0.0468,-0.62024 0.16931,-1.1061 0.26769,-0.60185 -0.35721,-1.68906 -0.042,-1.64033 0.22562,0.0349 0.36161,0.81728 0.35395,1.25038 z"
         sodipodi:nodetypes="asssa" />
    </g>
    <g
       id="g38"
       inkscape:label="eyebrows">
      <path
         style="font-variation-settings:normal;opacity:1;vector-effect:none;fill:#724297;fill-opacity:1;stroke:none;stroke-width:122.836;stroke-linecap:butt;stroke-linejoin:miter;stroke-miterlimit:4;stroke-dasharray:none;stroke-dashoffset:0;stroke-opacity:1;-inkscape-stroke:none;stop-color:#000000;stop-opacity:1"
         d="m 433.26563,512.60895 c 0.25432,-0.5842 2.36129,-0.76704 3.58379,-0.88611 1.22249,-0.11907 2.45591,0.6418 2.45591,0.6418 0,0 -1.18917,-0.4001 -2.29268,-0.30355 -1.10351,0.0966 -3.74704,0.60641 -3.74704,0.54786 z"
         id="path15"
         sodipodi:nodetypes="czczcc"
         inkscape:label="brow_right"
         transform="matrix(6.1923828,0,0,6.1923828,-2564.4283,-3083.8562)" />
      <path
         style="font-variation-settings:normal;opacity:1;vector-effect:none;fill:#724297;fill-opacity:1;stroke:none;stroke-width:122.836;stroke-linecap:butt;stroke-linejoin:miter;stroke-miterlimit:4;stroke-dasharray:none;stroke-dashoffset:0;stroke-opacity:1;-inkscape-stroke:none;stop-color:#000000;stop-opacity:1"
         d="m 433.26563,512.60895 c 0.25432,-0.5842 2.36129,-0.76704 3.58379,-0.88611 1.22249,-0.11907 2.45591,0.6418 2.45591,0.6418 0,0 -1.18917,-0.4001 -2.29268,-0.30355 -1.10351,0.0966 -3.74704,0.60641 -3.74704,0.54786 z"
         id="path94"
         sodipodi:nodetypes="czczcc"
         inkscape:label="brow_left"
         transform="matrix(-6.1923829,0,0,6.1923829,2780.6825,-3083.8563)" />
    </g>
  </g>
  <g
     inkscape:groupmode="layer"
     id="layer6"
     inkscape:label="Hair_mid"
     transform="translate(-8.1268586,-9.432228)">
    <path
       id="path12"
       clip-path="none"
       style="fill:#5949e6;fill-opacity:1;stroke-width:12.5452;stroke-linecap:round;stroke-linejoin:round"
       d="M 107.8092,11.60803 C 94.6621,6.1543463 52.130465,24.060628 47.730287,45.449369 c -6.471899,31.458795 6.179993,78.922451 8.248515,55.840221 1.66537,-18.584199 -7.373468,-67.178503 52.502078,-67.178503 59.87557,0 50.81265,48.594304 52.47801,67.178503 2.06851,23.08223 14.74456,-24.381426 8.27266,-55.840221 C 164.83138,24.060628 120.16096,2.4039804 107.8092,11.60803 Z"
       sodipodi:nodetypes="csszssc" />
    <path
       style="font-variation-settings:normal;vector-effect:none;fill:#e6a8fc;fill-opacity:1;stroke:none;stroke-width:792.628;stroke-linecap:butt;stroke-linejoin:miter;stroke-miterlimit:4;stroke-dasharray:none;stroke-dashoffset:0;stroke-opacity:1;-inkscape-stroke:none;stop-color:#000000"
       d="m 125.56398,24.489123 c 14.84713,-0.02053 26.55734,9.813129 35.19414,19.844051 8.63679,10.030977 22.45796,130.312856 22.45796,130.312856 l -21.12035,18.78591 7.70222,-37.60438 C 165.43345,111.82256 161.50481,56.899759 137.91377,49.892684 115.02631,43.094597 101.53419,59.752501 94.7129,38.922847 90.620576,26.426318 110.71683,24.510905 125.56398,24.489123 Z"
       id="path142"
       sodipodi:nodetypes="zzcccssz" />
    <path
       id="ellipse10"
       style="fill:#8e95f5;fill-opacity:1;stroke-width:12.5748;stroke-linecap:round;stroke-linejoin:round"
       d="m 166.02495,73.637321 c -3.05864,-7.440398 -5.59617,-54.687174 -55.84171,-46.267083 -25.631654,4.295344 -19.213836,-13.318736 -4.42594,-13.30165 17.73188,0.0196 30.66053,4.033352 53.21797,19.013787 18.18409,12.07613 26.17239,86.436415 27.19634,126.191375 0.27509,10.67782 -35.94486,27.40512 -34.75746,26.09599 24.44186,-26.94797 17.66946,-104.292042 14.6108,-111.732419 z"
       sodipodi:nodetypes="zsssssz" />
  </g>
  <g
     inkscape:groupmode="layer"
     id="layer5"
     inkscape:label="Hair_front"
     transform="translate(-8.1268586,-9.432228)">
    <path
       style="font-variation-settings:normal;vector-effect:none;fill:#847eff;fill-opacity:1;stroke:none;stroke-width:792.628;stroke-linecap:butt;stroke-linejoin:miter;stroke-miterlimit:4;stroke-dasharray:none;stroke-dashoffset:0;stroke-opacity:1;-inkscape-stroke:none;stop-color:#000000"
       d="M 63.066082,37.878195 C 61.13094,39.039275 40.231675,61.486634 40.231675,61.486634 L 30.556082,181.07695 58.0348,200.42819 52.616449,159.79069 Z"
       id="path141" />
    <path
       style="font-variation-settings:normal;vector-effect:none;fill:#ab8afc;fill-opacity:1;stroke:none;stroke-width:792.628;stroke-linecap:butt;stroke-linejoin:miter;stroke-miterlimit:4;stroke-dasharray:none;stroke-dashoffset:0;stroke-opacity:1;-inkscape-stroke:none;stop-color:#000000"
       d="m 105.14233,49.352047 -1.84331,-9.099322 c 0,0 5.8318,-16.282948 -4.353935,-23.059578 C 88.759364,10.416533 50.105657,27.605993 50.105657,27.605993 L 41.199168,80.837528 38.776743,175.29415 66.549237,193.0747 56.230779,165.7661 49.907197,99.608478 58.065547,66.499499 C 70.807052,55.864887 86.505304,46.756504 105.14227,49.352047 Z"
       id="path143"
       sodipodi:nodetypes="cczccccccccc" />
    <path
       id="path140"
       style="font-variation-settings:normal;vector-effect:none;fill:#bab5ff;fill-opacity:1;stroke:none;stroke-width:792.628;stroke-linecap:butt;stroke-linejoin:miter;stroke-miterlimit:4;stroke-dasharray:none;stroke-dashoffset:0;stroke-opacity:1;-inkscape-stroke:none;stop-color:#000000"
       d="m 67.613641,17.244973 -8.127484,27.478696 0.278033,-0.06192 -17.379783,73.107431 19.750304,28.68814 -20.379273,42.44338 17.960319,0.62899 5.648157,-44.93492 c 0,0 -3.996897,-12.21119 -7.280909,-23.70524 -2.746613,-9.61311 19.382291,-59.541252 27.031236,-75.949546 l 3.785577,-0.798275 16.242452,5.21034 c 0,0 3.76003,-14.450528 -2.50316,-21.658857 C 96.375945,20.484852 67.613641,17.244962 67.613641,17.24496 Z"
       sodipodi:nodetypes="ccccccccsccczc" />
  </g>
  <g
     inkscape:groupmode="layer"
     id="layer7"
     inkscape:label="Face_front"
     transform="translate(-8.1268586,-9.432228)">
    <g
       id="g123"
       transform="matrix(6.1923828,0,0,6.1923828,-2564.0068,-3083.8562)"
       inkscape:label="ear_right">
      <path
         id="path100"
         style="font-variation-settings:normal;opacity:1;vector-effect:none;fill:#e7e47e;fill-opacity:1;stroke:none;stroke-width:128;stroke-linecap:butt;stroke-linejoin:miter;stroke-miterlimit:4;stroke-dasharray:none;stroke-dashoffset:0;stroke-opacity:1;-inkscape-stroke:none;stop-color:#000000;stop-opacity:1"
         d="m 441.79102,512.76758 c -0.39498,-0.014 -1.17805,1.14378 -1.79493,1.59765 -0.0555,2.10001 -0.17539,3.96193 -0.30078,4.98047 0.64604,-0.55984 1.38665,-0.0901 1.41211,-1.07226 0.0294,-1.13399 1.31935,-1.24118 0.92383,-5.08594 -0.0303,-0.29459 -0.11603,-0.41552 -0.24023,-0.41992 z" />
      <path
         id="path102"
         style="fill:#d1d870;fill-opacity:1;stroke-width:2;stroke-linecap:round;stroke-linejoin:round"
         d="m 441.54687,516.625 c -0.60283,1.16494 -0.50429,1.36589 -0.97343,1.60934 -1.14426,0.59379 -0.50213,-0.4759 -0.27192,-1.36755 0.0448,-0.1734 -0.25619,-0.2326 -0.28589,-0.42148 -0.25781,-1.6398 0.6394,-1.80409 0.95703,-2.22657 0.83109,-1.10544 1.24918,1.10193 0.57421,2.40626 z"
         sodipodi:nodetypes="ssssss" />
      <path
         id="path101"
         style="fill:#c4ca40;fill-opacity:1;stroke-width:3.08844;stroke-linecap:round;stroke-linejoin:round"
         d="m 440.92488,516.863 c 0.39743,0.70555 -0.54432,1.6979 -0.79507,1.55492 -0.46145,-0.26312 -0.14305,-0.67969 0.15164,-1.26949 0.25865,-0.5177 -0.27055,-0.52171 -0.27538,-0.73433 -0.0135,-0.59636 -0.0996,-1.29461 0.47851,-1.39848 0.57811,-0.10387 0.0429,1.14183 0.4403,1.84738 z"
         sodipodi:nodetypes="zssszz" />
      <path
         id="ellipse101"
         style="fill:#c4ca40;fill-opacity:1;stroke-width:2.93099;stroke-linecap:round;stroke-linejoin:round"
         d="m 441.86893,515.16532 c -0.009,0.52377 -0.33637,1.53077 -0.48126,1.49605 -0.12919,-0.0313 -0.0468,-0.62024 0.16931,-1.1061 0.26769,-0.60185 -0.35721,-1.68906 -0.042,-1.64033 0.22562,0.0349 0.36161,0.81728 0.35395,1.25038 z"
         sodipodi:nodetypes="asssa" />
    </g>
  </g>
</svg>
