<?xml version="1.0" encoding="UTF-8" standalone="no"?>
<!-- Created with Inkscape (http://www.inkscape.org/) -->

<svg
   width="100"
   height="100"
   viewBox="0 0 100 100"
   version="1.1"
   id="svg1"
   inkscape:version="1.3 (0e150ed6c4, 2023-07-21)"
   sodipodi:docname="mona.svg"
   xmlns:inkscape="http://www.inkscape.org/namespaces/inkscape"
   xmlns:sodipodi="http://sodipodi.sourceforge.net/DTD/sodipodi-0.dtd"
   xmlns:xlink="http://www.w3.org/1999/xlink"
   xmlns="http://www.w3.org/2000/svg"
   xmlns:svg="http://www.w3.org/2000/svg">
  <sodipodi:namedview
     id="namedview1"
     pagecolor="#ffffff"
     bordercolor="#999999"
     borderopacity="1"
     inkscape:showpageshadow="0"
     inkscape:pageopacity="0"
     inkscape:pagecheckerboard="0"
     inkscape:deskcolor="#d1d1d1"
     inkscape:document-units="mm"
     inkscape:zoom="6.0934343"
     inkscape:cx="40.535433"
     inkscape:cy="43.243266"
     inkscape:window-width="1920"
     inkscape:window-height="1111"
     inkscape:window-x="-9"
     inkscape:window-y="-9"
     inkscape:window-maximized="1"
     inkscape:current-layer="layer1" />
  <defs
     id="defs1">
    <clipPath
       clipPathUnits="userSpaceOnUse"
       id="clipPath12">
      <path
         id="use13"
         style="fill:#fff3ea;fill-opacity:1;stroke-width:2.79346;stroke-linecap:round;stroke-linejoin:round"
         d="m 434.22146,515.07225 c -0.0161,-0.80572 0.54869,-1.36783 1.5285,-1.43458 1.37162,-0.0934 1.90305,0.0242 2.92782,1.09693 0,0 0.0948,0.7016 -1.04545,1.3775 -0.90306,0.53532 -3.36771,1.11468 -3.41087,-1.03985 z"
         sodipodi:nodetypes="sscss" />
    </clipPath>
    <clipPath
       clipPathUnits="userSpaceOnUse"
       id="clipPath1">
      <path
         id="use1"
         style="fill:#fff3ea;fill-opacity:1;stroke-width:2.79346;stroke-linecap:round;stroke-linejoin:round"
         d="m 434.22146,515.07225 c -0.0161,-0.80572 0.54869,-1.36783 1.5285,-1.43458 1.37162,-0.0934 1.90305,0.0242 2.92782,1.09693 0,0 0.0948,0.7016 -1.04545,1.3775 -0.90306,0.53532 -3.36771,1.11468 -3.41087,-1.03985 z"
         sodipodi:nodetypes="sscss" />
    </clipPath>
    <clipPath
       clipPathUnits="userSpaceOnUse"
       id="clipPath12-8">
      <path
         id="use13-3"
         style="fill:#fff3ea;fill-opacity:1;stroke-width:2.79346;stroke-linecap:round;stroke-linejoin:round"
         d="m 434.22146,515.07225 c -0.0161,-0.80572 0.54869,-1.36783 1.5285,-1.43458 1.37162,-0.0934 1.90305,0.0242 2.92782,1.09693 0,0 0.0948,0.7016 -1.04545,1.3775 -0.90306,0.53532 -3.36771,1.11468 -3.41087,-1.03985 z"
         sodipodi:nodetypes="sscss" />
    </clipPath>
    <clipPath
       clipPathUnits="userSpaceOnUse"
       id="clipPath1-2">
      <path
         id="use1-9"
         style="fill:#fff3ea;fill-opacity:1;stroke-width:2.79346;stroke-linecap:round;stroke-linejoin:round"
         d="m 434.22146,515.07225 c -0.0161,-0.80572 0.54869,-1.36783 1.5285,-1.43458 1.37162,-0.0934 1.90305,0.0242 2.92782,1.09693 0,0 0.0948,0.7016 -1.04545,1.3775 -0.90306,0.53532 -3.36771,1.11468 -3.41087,-1.03985 z"
         sodipodi:nodetypes="sscss" />
    </clipPath>
    <clipPath
       clipPathUnits="userSpaceOnUse"
       id="clipPath12-0">
      <path
         id="use13-8"
         style="fill:#fff3ea;fill-opacity:1;stroke-width:2.79346;stroke-linecap:round;stroke-linejoin:round"
         d="m 434.22146,515.07225 c -0.0161,-0.80572 0.54869,-1.36783 1.5285,-1.43458 1.37162,-0.0934 1.90305,0.0242 2.92782,1.09693 0,0 0.0948,0.7016 -1.04545,1.3775 -0.90306,0.53532 -3.36771,1.11468 -3.41087,-1.03985 z"
         sodipodi:nodetypes="sscss" />
    </clipPath>
    <clipPath
       clipPathUnits="userSpaceOnUse"
       id="clipPath1-9">
      <path
         id="use1-6"
         style="fill:#fff3ea;fill-opacity:1;stroke-width:2.79346;stroke-linecap:round;stroke-linejoin:round"
         d="m 434.22146,515.07225 c -0.0161,-0.80572 0.54869,-1.36783 1.5285,-1.43458 1.37162,-0.0934 1.90305,0.0242 2.92782,1.09693 0,0 0.0948,0.7016 -1.04545,1.3775 -0.90306,0.53532 -3.36771,1.11468 -3.41087,-1.03985 z"
         sodipodi:nodetypes="sscss" />
    </clipPath>
    <clipPath
       clipPathUnits="userSpaceOnUse"
       id="clipPath12-1">
      <use
         x="0"
         y="0"
         xlink:href="#path79"
         id="use13-1"
         transform="matrix(0.87232579,0,0,0.87232579,55.701183,65.387011)" />
    </clipPath>
    <clipPath
       clipPathUnits="userSpaceOnUse"
       id="clipPath1-0">
      <use
         x="0"
         y="0"
         xlink:href="#path79"
         id="use1-2"
         transform="matrix(0.87232579,0,0,0.87232579,55.701183,65.387011)" />
    </clipPath>
  </defs>
  <g
     inkscape:label="Layer 1"
     inkscape:groupmode="layer"
     id="layer1">
    <path
       style="font-variation-settings:normal;vector-effect:none;fill:#9745eb;fill-opacity:1;stroke:none;stroke-width:331.897;stroke-linecap:butt;stroke-linejoin:miter;stroke-miterlimit:4;stroke-dasharray:none;stroke-dashoffset:0;stroke-opacity:1;-inkscape-stroke:none;stop-color:#000000"
       d="m 68.458312,18.702476 6.188035,6.188009 9.740395,52.139828 -10.876675,9.987555 3.313549,-11.591861 C 74.331771,50.302063 68.458312,18.702476 68.458312,18.702476 Z"
       id="path142"
       sodipodi:nodetypes="cccccc" />
    <path
       id="path137"
       style="fill:#5044cc;fill-opacity:0.983806;stroke-width:4.4915;stroke-linecap:round;stroke-linejoin:round"
       d="M 50.145644,11.849065 C 37.461116,11.848521 27.91011,23.105917 27.908788,28.228978 l -3.491425,55.470543 c 23.134973,-10.430299 39.612952,-9.216957 51.451661,0 L 72.377599,28.228978 C 72.376276,23.106669 62.830145,11.84961 50.145644,11.849065 Z"
       sodipodi:nodetypes="zccccz" />
    <path
       style="font-variation-settings:normal;vector-effect:none;fill:#a19dff;fill-opacity:1;stroke:none;stroke-width:331.897;stroke-linecap:butt;stroke-linejoin:miter;stroke-miterlimit:4;stroke-dasharray:none;stroke-dashoffset:0;stroke-opacity:1;-inkscape-stroke:none;stop-color:#000000"
       d="M 75.171159,26.043178 70.349916,34.18663 71.727418,74.782412 67.432854,88.962576 79.58728,85.073159 Z"
       id="path139"
       sodipodi:nodetypes="cccccc" />
    <path
       id="path77"
       style="fill:#f8f38b;fill-opacity:1;stroke-width:7.26154;stroke-linecap:round;stroke-linejoin:round"
       inkscape:transform-center-x="-1.7775477e-05"
       inkscape:transform-center-y="2.0266164"
       d="m 50.14318,12.982208 c -8.825422,0 -17.65056,7.542641 -19.548361,8.84741 -3.795656,2.609513 -2.44971,36.459543 -1.382558,40.681868 1.067152,4.222324 14.890708,16.246428 20.930919,16.246428 6.040212,0 19.863793,-12.024104 20.930946,-16.246428 1.067152,-4.222325 2.413071,-38.072355 -1.382584,-40.681868 -1.897802,-1.304769 -10.722939,-8.84741 -19.548362,-8.84741 z"
       sodipodi:nodetypes="sssssss" />
    <path
       id="path12"
       clip-path="none"
       style="fill:#8075ed;fill-opacity:1;stroke-width:5.25305;stroke-linecap:round;stroke-linejoin:round"
       d="m 50.148236,9.6245517 c -4.671992,0 -23.595688,5.9330463 -25.438182,14.8891783 -2.70999,13.172779 2.587758,33.047307 3.453905,23.382055 C 28.861306,40.113997 26.708618,14.617889 50.148236,23.516043 73.587881,14.617889 71.425081,40.113997 72.122427,47.895785 72.988574,57.561037 78.296434,37.686509 75.586445,24.51373 73.743951,15.557598 54.820229,9.6245517 50.148236,9.6245517 Z"
       sodipodi:nodetypes="zsscssz" />
    <path
       id="path88"
       style="fill:#826500;fill-opacity:0.074224;stroke-width:5.18589;stroke-linecap:round;stroke-linejoin:round"
       d="m 71.328182,47.763338 c 0,0 -10.38233,11.343456 -14.902972,5.801842 -8.695024,-10.658764 -5.960971,-3.821248 -15.323937,2.811944 -2.14561,1.520036 -13.431995,-6.297639 -13.472134,-7.762834 -0.108645,-3.970134 5.340298,-8.811446 13.291743,-6.59033 9.762305,2.726947 9.622441,3.145293 19.920345,-0.208992 4.973526,-0.69229 6.847317,3.325685 10.486955,5.94837 z"
       sodipodi:nodetypes="sssssss" />
    <path
       id="path87"
       style="fill:#f7ac9f;fill-opacity:0.0917679;stroke-width:4.8955;stroke-linecap:round;stroke-linejoin:round"
       d="M 71.590484,54.854444 C 71.254517,58.168486 54.560727,70.316999 49.93603,69.935033 44.270551,69.467058 25.337702,58.304382 25.428689,54.977842 c 0.351992,-12.868886 13.023451,0.876285 16.214924,-2.195576 7.98772,-7.688416 8.210324,-7.374385 15.094487,-0.60387 4.071623,4.004387 15.865292,-7.315526 14.852384,2.676048 z"
       sodipodi:nodetypes="ssssss" />
    <path
       id="path18"
       style="fill:#cb1797;fill-opacity:1;stroke:none;stroke-width:5.18589;stroke-linecap:round;stroke-linejoin:round"
       d="m 47.747741,67.677123 c -0.569774,0.02645 -1.108017,0.355959 -3.767859,1.716814 -0.254628,0.130166 2.759592,1.40325 6.163298,1.402835 3.403706,4.15e-4 6.417848,-1.272617 6.163299,-1.402835 -2.659842,-1.360855 -3.198086,-1.690366 -3.767859,-1.716814 -0.44316,-0.02074 -0.906312,0.141575 -2.39544,0.141834 -1.489128,-2.59e-4 -1.952279,-0.162578 -2.395439,-0.141834 z m 2.395439,0.891325 c 2.309198,-2.6e-5 2.740872,0.290228 3.327266,0.470982 -0.831842,-0.04304 -1.97546,-0.0809 -3.327266,-0.0809 -1.351805,0 -2.495423,0.03786 -3.327266,0.0809 0.586395,-0.180728 1.018068,-0.471008 3.327266,-0.470982 z" />
    <g
       id="g122"
       transform="matrix(2.5929442,0,0,2.5929442,-1068.864,-1285.8245)">
      <path
         id="path82"
         style="fill:#fde880;fill-opacity:1;stroke-width:2.06135;stroke-linecap:round;stroke-linejoin:round"
         d="m 433.32576,519.93821 c 0.009,0.19229 -0.41218,-1.12105 -1.14086,-0.43768 -0.63328,0.59391 -0.80759,0.47947 -1.16188,0.0475 -0.4861,-0.59253 -1.22978,0.47569 -1.23159,0.33732 -0.006,-0.47287 0.11968,-0.91163 1.09687,-1.40966 0.0497,-0.0253 0.3767,-2.78229 0.75964,-2.77578 0.38294,0.007 0.548,2.72049 0.65638,2.76546 1.04756,0.43464 1.02144,0.71224 1.02144,1.47282 z"
         sodipodi:nodetypes="ssssszsss" />
      <path
         id="path86"
         style="fill:#9d7a00;fill-opacity:1;stroke-width:2.59819;stroke-linecap:round;stroke-linejoin:round"
         d="m 433.04714,519.94298 c 0,0.1524 -0.19108,0.0148 -0.45233,0.0148 -0.26125,0 -0.49376,0.13749 -0.49376,-0.0148 0,-0.15241 0.21179,-0.27595 0.47305,-0.27595 0.26125,0 0.47304,0.12353 0.47304,0.27595 z"
         sodipodi:nodetypes="sssss" />
      <path
         id="ellipse86"
         style="fill:#9d7a00;fill-opacity:1;stroke-width:2.59819;stroke-linecap:round;stroke-linejoin:round"
         d="m 431.13422,519.88324 c 0,0.1524 -0.28776,0.0895 -0.54901,0.0895 -0.26125,0 -0.39708,0.0629 -0.39708,-0.0895 0,-0.15241 0.21179,-0.27595 0.47305,-0.27595 0.26125,0 0.47304,0.12353 0.47304,0.27595 z"
         sodipodi:nodetypes="sssss" />
      <path
         id="path85"
         style="fill:#e8de6a;fill-opacity:1;stroke-width:1.89073;stroke-linecap:round;stroke-linejoin:round"
         d="m 433.19825,520.02479 c -0.073,0.15795 -0.43629,-0.62678 -1.10466,3e-5 -0.58086,0.54475 -0.74075,0.43978 -1.0657,0.0436 -0.44588,-0.54348 -0.982,-10e-4 -1.06988,-0.0859 -0.28321,-0.27146 0.36234,-1.769 1.57617,-0.0408 1.52869,-1.59343 1.78595,-0.18046 1.7129,-0.0226 z"
         sodipodi:nodetypes="sssscss" />
    </g>
    <g
       id="g88"
       transform="matrix(2.5929442,0,0,2.5929442,-1068.9394,-1285.8245)">
      <path
         id="path79"
         style="fill:#fff3ea;fill-opacity:1;stroke-width:3.20231;stroke-linecap:round;stroke-linejoin:round"
         d="m 433.92077,515.50148 c -0.0185,-0.92364 0.62899,-1.56802 1.75221,-1.64454 1.57237,-0.10713 2.18158,0.0277 3.35634,1.25747 0,0 0.10871,0.80429 -1.19846,1.57912 -1.03524,0.61367 -3.86061,1.27782 -3.91009,-1.19205 z"
         sodipodi:nodetypes="sscss" />
      <g
         id="g11"
         transform="matrix(1.1463607,0,0,1.1463607,-63.853647,-74.9571)"
         clip-path="url(#clipPath12-1)">
        <ellipse
           style="fill:#9a57f9;fill-opacity:1;stroke-width:1.52567;stroke-linecap:round;stroke-linejoin:round"
           id="path5"
           cx="436.10367"
           cy="515.26202"
           rx="1.482614"
           ry="1.521284" />
        <circle
           style="fill:#442457;fill-opacity:1;stroke-width:4.05659;stroke-linecap:round;stroke-linejoin:round"
           id="path6"
           cx="436.11588"
           cy="515.33777"
           r="1.0141484" />
        <path
           id="path14"
           style="fill:#1a023d;fill-opacity:0.415655;stroke-width:2.39516;stroke-linecap:round;stroke-linejoin:round"
           d="m 438.82113,515.41955 c -0.006,0.47759 -1.09543,-0.67486 -2.64942,-0.67486 -1.55399,0 -2.52912,0.8248 -2.52912,0.34719 0,-0.47763 1.17898,-1.74568 2.73297,-1.74568 1.19899,0.0485 2.46305,0.63364 2.44557,2.07335 z"
           sodipodi:nodetypes="sssss" />
        <ellipse
           style="fill:#ffffff;fill-opacity:1;stroke:none;stroke-width:1.38812;stroke-linecap:round;stroke-linejoin:round"
           id="path11"
           cx="436.94217"
           cy="515.35626"
           rx="0.3784126"
           ry="0.22097088" />
      </g>
      <path
         style="font-variation-settings:normal;opacity:1;vector-effect:none;fill:#39251d;fill-opacity:1;stroke:none;stroke-width:128;stroke-linecap:butt;stroke-linejoin:miter;stroke-miterlimit:4;stroke-dasharray:none;stroke-dashoffset:0;stroke-opacity:1;-inkscape-stroke:none;stop-color:#000000;stop-opacity:1"
         d="m 433.35576,514.93692 c 0.14483,-0.22523 0.18077,-0.35742 0.33594,-0.4727 0.72595,-0.53931 1.368,-0.98323 2.57107,-0.8662 0.18805,0.0371 1.01549,-0.067 1.20613,-0.21856 -0.23307,0.21084 -0.0697,0.32559 0.1289,0.29504 0.42054,-0.0647 0.74411,-0.2407 0.74411,-0.2407 l -0.29738,0.39965 c 0.26097,0.13821 0.30622,0.0702 0.66024,0.002 l -0.22607,0.19545 c 0.19594,0.23384 0.50651,0.002 1.01149,-0.11333 -0.32334,0.24283 -0.5024,0.30926 -0.54141,0.47247 0.0788,0.15229 0.67385,0.88226 1.00299,0.91812 0.32914,0.0358 -0.65199,0.004 -0.91188,-0.17796 -0.25989,-0.18209 -0.25171,-0.33799 -0.79748,-0.64854 -0.54577,-0.31056 -1.5912,-0.54256 -2.43793,-0.50331 -1.31306,0.0608 -1.12251,0.28577 -2.44872,0.95857 z"
         id="path10"
         sodipodi:nodetypes="caccscccccczzzzc" />
      <path
         style="font-variation-settings:normal;opacity:1;vector-effect:none;fill:#724297;fill-opacity:1;stroke:none;stroke-width:122.836;stroke-linecap:butt;stroke-linejoin:miter;stroke-miterlimit:4;stroke-dasharray:none;stroke-dashoffset:0;stroke-opacity:1;-inkscape-stroke:none;stop-color:#000000;stop-opacity:1"
         d="m 433.26563,512.60895 c 0.25432,-0.5842 2.36129,-0.76704 3.58379,-0.88611 1.22249,-0.11907 2.45591,0.6418 2.45591,0.6418 0,0 -1.18917,-0.4001 -2.29268,-0.30355 -1.10351,0.0966 -3.74704,0.60641 -3.74704,0.54786 z"
         id="path15"
         sodipodi:nodetypes="czczcc" />
      <path
         style="font-variation-settings:normal;opacity:1;vector-effect:none;fill:#39251d;fill-opacity:1;stroke:none;stroke-width:128;stroke-linecap:butt;stroke-linejoin:miter;stroke-miterlimit:4;stroke-dasharray:none;stroke-dashoffset:0;stroke-opacity:1;-inkscape-stroke:none;stop-color:#000000;stop-opacity:1"
         d="m 435.94181,517.22344 c 0.35471,-0.0168 0.59262,-0.0882 1.12261,-0.24794 0.53,-0.15975 1.0068,-0.45549 1.19226,-0.62056 l 0.46746,-0.21674 -0.63622,0.45296 0.16986,0.0259 c -0.39751,0.10386 -0.50589,0.15441 -0.81417,0.34001 l 0.14053,0.0666 c -0.27594,-0.0206 -0.20927,-0.0172 -0.79436,0.12396 l 0.0993,0.0422 c -0.25247,-0.0388 -1.1,0.42173 -2.02109,0.0448 0,0 0.7191,0.006 1.07382,-0.0111 z"
         id="path17"
         sodipodi:nodetypes="zzccccccccczz" />
      <path
         style="font-variation-settings:normal;opacity:1;vector-effect:none;fill:#573f33;fill-opacity:1;stroke:none;stroke-width:128;stroke-linecap:butt;stroke-linejoin:miter;stroke-miterlimit:4;stroke-dasharray:none;stroke-dashoffset:0;stroke-opacity:1;-inkscape-stroke:none;stop-color:#000000;stop-opacity:1"
         d="m 433.85671,513.61003 c 0,0 1.96365,-0.35285 2.85938,-0.21876 0.89573,0.13409 1.95311,0.58593 1.95311,0.58593 0,0 -1.11297,-0.63456 -2.07421,-0.73047 -0.96124,-0.0959 -2.73828,0.3633 -2.73828,0.3633 z"
         id="path23"
         sodipodi:nodetypes="czczc" />
    </g>
    <g
       id="g99"
       transform="matrix(-2.5929442,0,0,2.5929442,1169.2258,-1285.8245)">
      <path
         id="path90"
         style="fill:#fff3ea;fill-opacity:1;stroke-width:3.20231;stroke-linecap:round;stroke-linejoin:round"
         d="m 433.92077,515.50148 c -0.0185,-0.92364 0.62899,-1.56802 1.75221,-1.64454 1.57237,-0.10713 2.18158,0.0277 3.35634,1.25747 0,0 0.10871,0.80429 -1.19846,1.57912 -1.03524,0.61367 -3.86061,1.27782 -3.91009,-1.19205 z"
         sodipodi:nodetypes="sscss" />
      <g
         id="g91"
         transform="matrix(1.1463607,0,0,1.1463607,-63.853647,-74.9571)"
         clip-path="url(#clipPath12-1)">
        <ellipse
           style="fill:#9a57f9;fill-opacity:1;stroke-width:1.52567;stroke-linecap:round;stroke-linejoin:round"
           id="ellipse90"
           cx="436.10367"
           cy="515.26202"
           rx="1.482614"
           ry="1.521284" />
        <circle
           style="fill:#442457;fill-opacity:1;stroke-width:4.05659;stroke-linecap:round;stroke-linejoin:round"
           id="circle90"
           cx="436.11588"
           cy="515.33777"
           r="1.0141484" />
        <path
           id="path91"
           style="fill:#1a023d;fill-opacity:0.415655;stroke-width:2.39516;stroke-linecap:round;stroke-linejoin:round"
           d="m 438.82113,515.41955 c -0.006,0.47759 -1.09543,-0.67486 -2.64942,-0.67486 -1.55399,0 -2.52912,0.8248 -2.52912,0.34719 0,-0.47763 1.17898,-1.74568 2.73297,-1.74568 1.19899,0.0485 2.46305,0.63364 2.44557,2.07335 z"
           sodipodi:nodetypes="sssss" />
        <ellipse
           style="fill:#ffffff;fill-opacity:1;stroke:none;stroke-width:1.38812;stroke-linecap:round;stroke-linejoin:round"
           id="ellipse91"
           cx="436.94217"
           cy="515.35626"
           rx="0.3784126"
           ry="0.22097088" />
      </g>
      <path
         style="font-variation-settings:normal;opacity:1;vector-effect:none;fill:#39251d;fill-opacity:1;stroke:none;stroke-width:128;stroke-linecap:butt;stroke-linejoin:miter;stroke-miterlimit:4;stroke-dasharray:none;stroke-dashoffset:0;stroke-opacity:1;-inkscape-stroke:none;stop-color:#000000;stop-opacity:1"
         d="m 433.35576,514.93692 c 0.14483,-0.22523 0.18077,-0.35742 0.33594,-0.4727 0.72595,-0.53931 1.368,-0.98323 2.57107,-0.8662 0.18805,0.0371 1.01549,-0.067 1.20613,-0.21856 -0.23307,0.21084 -0.0697,0.32559 0.1289,0.29504 0.42054,-0.0647 0.74411,-0.2407 0.74411,-0.2407 l -0.29738,0.39965 c 0.26097,0.13821 0.30622,0.0702 0.66024,0.002 l -0.22607,0.19545 c 0.19594,0.23384 0.50651,0.002 1.01149,-0.11333 -0.32334,0.24283 -0.5024,0.30926 -0.54141,0.47247 0.0788,0.15229 0.67385,0.88226 1.00299,0.91812 0.32914,0.0358 -0.65199,0.004 -0.91188,-0.17796 -0.25989,-0.18209 -0.25171,-0.33799 -0.79748,-0.64854 -0.54577,-0.31056 -1.5912,-0.54256 -2.43793,-0.50331 -1.31306,0.0608 -1.12251,0.28577 -2.44872,0.95857 z"
         id="path92"
         sodipodi:nodetypes="caccscccccczzzzc" />
      <path
         style="font-variation-settings:normal;opacity:1;vector-effect:none;fill:#724297;fill-opacity:1;stroke:none;stroke-width:122.836;stroke-linecap:butt;stroke-linejoin:miter;stroke-miterlimit:4;stroke-dasharray:none;stroke-dashoffset:0;stroke-opacity:1;-inkscape-stroke:none;stop-color:#000000;stop-opacity:1"
         d="m 433.26563,512.60895 c 0.25432,-0.5842 2.36129,-0.76704 3.58379,-0.88611 1.22249,-0.11907 2.45591,0.6418 2.45591,0.6418 0,0 -1.18917,-0.4001 -2.29268,-0.30355 -1.10351,0.0966 -3.74704,0.60641 -3.74704,0.54786 z"
         id="path94"
         sodipodi:nodetypes="czczcc" />
      <path
         style="font-variation-settings:normal;opacity:1;vector-effect:none;fill:#39251d;fill-opacity:1;stroke:none;stroke-width:128;stroke-linecap:butt;stroke-linejoin:miter;stroke-miterlimit:4;stroke-dasharray:none;stroke-dashoffset:0;stroke-opacity:1;-inkscape-stroke:none;stop-color:#000000;stop-opacity:1"
         d="m 435.94181,517.22344 c 0.35471,-0.0168 0.59262,-0.0882 1.12261,-0.24794 0.53,-0.15975 1.0068,-0.45549 1.19226,-0.62056 l 0.46746,-0.21674 -0.63622,0.45296 0.16986,0.0259 c -0.39751,0.10386 -0.50589,0.15441 -0.81417,0.34001 l 0.14053,0.0666 c -0.27594,-0.0206 -0.20927,-0.0172 -0.79436,0.12396 l 0.0993,0.0422 c -0.25247,-0.0388 -1.1,0.42173 -2.02109,0.0448 0,0 0.7191,0.006 1.07382,-0.0111 z"
         id="path98"
         sodipodi:nodetypes="zzccccccccczz" />
      <path
         style="font-variation-settings:normal;opacity:1;vector-effect:none;fill:#573f33;fill-opacity:1;stroke:none;stroke-width:128;stroke-linecap:butt;stroke-linejoin:miter;stroke-miterlimit:4;stroke-dasharray:none;stroke-dashoffset:0;stroke-opacity:1;-inkscape-stroke:none;stop-color:#000000;stop-opacity:1"
         d="m 433.85671,513.61003 c 0,0 1.96365,-0.35285 2.85938,-0.21876 0.89573,0.13409 1.95311,0.58593 1.95311,0.58593 0,0 -1.11297,-0.63456 -2.07421,-0.73047 -0.96124,-0.0959 -2.73828,0.3633 -2.73828,0.3633 z"
         id="path99"
         sodipodi:nodetypes="czczc" />
    </g>
    <g
       id="g136"
       transform="matrix(-2.5929442,0,0,2.5929442,1169.0493,-1285.8245)">
      <path
         id="path133"
         style="font-variation-settings:normal;opacity:1;vector-effect:none;fill:#e7e47e;fill-opacity:1;stroke:none;stroke-width:128;stroke-linecap:butt;stroke-linejoin:miter;stroke-miterlimit:4;stroke-dasharray:none;stroke-dashoffset:0;stroke-opacity:1;-inkscape-stroke:none;stop-color:#000000;stop-opacity:1"
         d="m 441.79102,512.76758 c -0.39498,-0.014 -1.17805,1.14378 -1.79493,1.59765 -0.0555,2.10001 -0.17539,3.96193 -0.30078,4.98047 0.64604,-0.55984 1.38665,-0.0901 1.41211,-1.07226 0.0294,-1.13399 1.31935,-1.24118 0.92383,-5.08594 -0.0303,-0.29459 -0.11603,-0.41552 -0.24023,-0.41992 z" />
      <path
         id="path134"
         style="fill:#d1d870;fill-opacity:1;stroke-width:2;stroke-linecap:round;stroke-linejoin:round"
         d="m 441.54687,516.625 c -0.60283,1.16494 -0.50429,1.36589 -0.97343,1.60934 -1.14426,0.59379 -0.50213,-0.4759 -0.27192,-1.36755 0.0448,-0.1734 -0.25619,-0.2326 -0.28589,-0.42148 -0.25781,-1.6398 0.6394,-1.80409 0.95703,-2.22657 0.83109,-1.10544 1.24918,1.10193 0.57421,2.40626 z"
         sodipodi:nodetypes="ssssss" />
      <path
         id="path135"
         style="fill:#c4ca40;fill-opacity:1;stroke-width:3.08844;stroke-linecap:round;stroke-linejoin:round"
         d="m 440.92488,516.863 c 0.39743,0.70555 -0.54432,1.6979 -0.79507,1.55492 -0.46145,-0.26312 -0.14305,-0.67969 0.15164,-1.26949 0.25865,-0.5177 -0.27055,-0.52171 -0.27538,-0.73433 -0.0135,-0.59636 -0.0996,-1.29461 0.47851,-1.39848 0.57811,-0.10387 0.0429,1.14183 0.4403,1.84738 z"
         sodipodi:nodetypes="zssszz" />
      <path
         id="path136"
         style="fill:#c4ca40;fill-opacity:1;stroke-width:2.93099;stroke-linecap:round;stroke-linejoin:round"
         d="m 441.86893,515.16532 c -0.009,0.52377 -0.33637,1.53077 -0.48126,1.49605 -0.12919,-0.0313 -0.0468,-0.62024 0.16931,-1.1061 0.26769,-0.60185 -0.35721,-1.68906 -0.042,-1.64033 0.22562,0.0349 0.36161,0.81728 0.35395,1.25038 z"
         sodipodi:nodetypes="asssa" />
    </g>
    <path
       id="ellipse10"
       style="fill:#a19dff;fill-opacity:1;stroke-width:5.26549;stroke-linecap:round;stroke-linejoin:round"
       d="M 72.122427,47.895785 C 71.124999,45.213048 72.162877,21.274573 51.391398,26.135824 43.706222,27.93442 44.878129,12.366461 51.070287,12.373618 c 7.424896,0.0078 9.900172,2.634716 16.509224,6.696511 6.609052,4.061795 8.889261,18.528453 9.64946,27.39697 0.371725,4.336621 -4.557514,2.905394 -5.106544,1.428686 z"
       sodipodi:nodetypes="ssszss" />
    <path
       style="font-variation-settings:normal;vector-effect:none;fill:#a19dff;fill-opacity:1;stroke:none;stroke-width:331.897;stroke-linecap:butt;stroke-linejoin:miter;stroke-miterlimit:4;stroke-dasharray:none;stroke-dashoffset:0;stroke-opacity:1;-inkscape-stroke:none;stop-color:#000000"
       d="m 31.131636,21.343441 c -0.810295,0.486177 -9.561482,9.885599 -9.561482,9.885599 l -4.051475,50.076234 11.50619,8.102951 -2.268826,-17.016196 z"
       id="path141" />
    <path
       style="font-variation-settings:normal;vector-effect:none;fill:#bda6f5;fill-opacity:1;stroke:none;stroke-width:331.897;stroke-linecap:butt;stroke-linejoin:miter;stroke-miterlimit:4;stroke-dasharray:none;stroke-dashoffset:0;stroke-opacity:1;-inkscape-stroke:none;stop-color:#000000"
       d="m 48.750277,26.147907 -0.197324,-4.07533 -7.774943,1.05914 -15.692031,0.893114 -3.110703,15.30703 -1.01436,39.551941 11.629225,7.445302 -4.320675,-11.434988 -2.647862,-27.702263 3.416152,-13.863772 c 5.335267,-4.453045 11.908614,-8.267006 19.712495,-7.180174 z"
       id="path143"
       sodipodi:nodetypes="ccccccccccc" />
    <g
       id="g123"
       transform="matrix(2.5929442,0,0,2.5929442,-1068.7628,-1285.8245)">
      <path
         id="path100"
         style="font-variation-settings:normal;opacity:1;vector-effect:none;fill:#e7e47e;fill-opacity:1;stroke:none;stroke-width:128;stroke-linecap:butt;stroke-linejoin:miter;stroke-miterlimit:4;stroke-dasharray:none;stroke-dashoffset:0;stroke-opacity:1;-inkscape-stroke:none;stop-color:#000000;stop-opacity:1"
         d="m 441.79102,512.76758 c -0.39498,-0.014 -1.17805,1.14378 -1.79493,1.59765 -0.0555,2.10001 -0.17539,3.96193 -0.30078,4.98047 0.64604,-0.55984 1.38665,-0.0901 1.41211,-1.07226 0.0294,-1.13399 1.31935,-1.24118 0.92383,-5.08594 -0.0303,-0.29459 -0.11603,-0.41552 -0.24023,-0.41992 z" />
      <path
         id="path102"
         style="fill:#d1d870;fill-opacity:1;stroke-width:2;stroke-linecap:round;stroke-linejoin:round"
         d="m 441.54687,516.625 c -0.60283,1.16494 -0.50429,1.36589 -0.97343,1.60934 -1.14426,0.59379 -0.50213,-0.4759 -0.27192,-1.36755 0.0448,-0.1734 -0.25619,-0.2326 -0.28589,-0.42148 -0.25781,-1.6398 0.6394,-1.80409 0.95703,-2.22657 0.83109,-1.10544 1.24918,1.10193 0.57421,2.40626 z"
         sodipodi:nodetypes="ssssss" />
      <path
         id="path101"
         style="fill:#c4ca40;fill-opacity:1;stroke-width:3.08844;stroke-linecap:round;stroke-linejoin:round"
         d="m 440.92488,516.863 c 0.39743,0.70555 -0.54432,1.6979 -0.79507,1.55492 -0.46145,-0.26312 -0.14305,-0.67969 0.15164,-1.26949 0.25865,-0.5177 -0.27055,-0.52171 -0.27538,-0.73433 -0.0135,-0.59636 -0.0996,-1.29461 0.47851,-1.39848 0.57811,-0.10387 0.0429,1.14183 0.4403,1.84738 z"
         sodipodi:nodetypes="zssszz" />
      <path
         id="ellipse101"
         style="fill:#c4ca40;fill-opacity:1;stroke-width:2.93099;stroke-linecap:round;stroke-linejoin:round"
         d="m 441.86893,515.16532 c -0.009,0.52377 -0.33637,1.53077 -0.48126,1.49605 -0.12919,-0.0313 -0.0468,-0.62024 0.16931,-1.1061 0.26769,-0.60185 -0.35721,-1.68906 -0.042,-1.64033 0.22562,0.0349 0.36161,0.81728 0.35395,1.25038 z"
         sodipodi:nodetypes="asssa" />
    </g>
    <path
       id="path140"
       style="font-variation-settings:normal;vector-effect:none;fill:#9591ff;fill-opacity:1;stroke:none;stroke-width:331.897;stroke-linecap:butt;stroke-linejoin:miter;stroke-miterlimit:4;stroke-dasharray:none;stroke-dashoffset:0;stroke-opacity:1;-inkscape-stroke:none;stop-color:#000000"
       d="m 33.035842,12.703674 -3.403239,11.506189 0.116423,-0.02593 -7.277461,30.612376 8.270066,12.012618 -8.533431,17.772377 7.520549,0.263339 2.365051,-18.815621 c 0,0 -1.673616,-5.113208 -3.048732,-9.926128 -1.150101,-4.025312 8.115967,-24.93178 11.318823,-31.80246 l 1.585145,-0.334256 7.049541,1.701619 -1.296472,-8.589127 z"
       sodipodi:nodetypes="ccccccccsccccc" />
  </g>
</svg>
