<svg xmlns="http://www.w3.org/2000/svg" viewBox="0 0 200 300">
  <defs>
    <clipPath id="d">
      <use href="#a"/>
    </clipPath>
    <clipPath id="c">
      <use href="#b"/>
    </clipPath>
  </defs>
  <g data-label="Hair_back">
    <path d="M100.348 5.772C70.055 5.77 47.246 32.655 47.243 44.89l-8.339 132.473c55.25-24.91 94.603-22.012 122.876 0L153.44 44.89c-.002-12.233-22.8-39.117-53.093-39.118Z" style="fill:#5044cc"/>
    <path d="m155.337 39.67-11.514 19.448 3.29 96.95-10.257 33.864 29.027-9.289z" style="fill:#6e67ff"/>
  </g>
  <g data-label="Torso">
    <path data-label="body" d="m100 173.26-86.805 24.215C-3.817 215.063 8.778 270.22 12.588 300h174.824c3.81-29.779 16.405-84.937-.607-102.525z" style="fill:#0f1c2d"/>
    <g data-label="pads">
      <path d="m8.466 192.62 44.365-11.085 6.908 9.395L0 207.314ZM191.534 192.62l-44.365-11.085-6.908 9.395L200 207.314Z" style="fill:#aead71"/>
    </g>
    <path data-label="neck" d="m73.227 118.675 3.127 62.987s11.163 21.39 23.646 21.39 23.646-21.39 23.646-21.39l3.127-62.987H100z" style="fill:#f8ee68"/>
    <g data-label="flap">
      <path d="M52.493 212.112 162.35 228.53l-3.212 54.14-84.73-17.975-21.166-25.594Z" style="fill:#1d3655"/>
      <path d="M53.24 239.102 56.33 300H156.8l2.337-17.33-84.729-17.975z" style="fill:#132439"/>
      <circle cx="65.777" cy="229.575" r="3.134" style="fill:#aead71"/>
      <circle cx="66.076" cy="255.845" r="3.134" style="fill:#aead71"/>
      <circle cx="66.076" cy="279.428" r="3.134" style="fill:#aead71"/>
      <path d="m102.229 231.184 45.84 3.485-.34 4.465-45.84-3.485zM103.542 256.34l44.573 1.926-.193 4.473-44.574-1.927zM105.268 281.426l42.86 2.696-.28 4.467-42.86-2.695z" style="fill:#aead71"/>
    </g>
    <g data-label="collar">
      <path d="m91.803 174.944.236 25.446c-1.01.81-1.721 1.698-2.333 1.549-2.083-.509-3.796-3.001-4.851-4.655" style="fill:#0a121d"/>
      <path d="m91.722 174.972-16.39-13.782-.068-1.517-2.117-.321-5.7 26.174 14.987 26.386z" style="fill:#112534"/>
      <path d="m73.147 159.352 19.402 15.555-3.3 8.23-18.344-18.645z" style="fill:#aead71"/>
      <path d="m108.201 174.944-.237 25.446c1.011.81 1.722 1.698 2.334 1.549 2.083-.509 3.796-3.001 4.85-4.655" style="fill:#0a121d"/>
      <path d="m108.278 174.972 16.39-13.782.068-1.517 2.117-.321 5.7 26.174-14.987 26.386z" style="fill:#112534"/>
      <path d="m126.853 159.352-19.402 15.555 3.3 8.23 18.344-18.645z" style="fill:#aead71"/>
      <ellipse cx="115.34" cy="186.954" rx="1.741" ry="2.718" style="fill:#aead71"/>
      <ellipse cx="119.146" cy="201.651" rx="1.741" ry="2.718" style="fill:#aead71"/>
    </g>
    <path d="m168.227 248.9 20.711-19.528-19.105-7.541z" style="fill:#214762"/>
    <path data-label="path30" d="m8.601 240.746 28.2-9.954-.366 67.352z" style="fill:#172641"/>
  </g>
  <g data-label="Face">
    <path data-label="skin" d="M100.014 24.678c-59.78 0-50.869 48.433-52.498 67.083.437 16.632 1.516 31.106 2.5 35.002C52.565 136.846 85.575 165.56 100 165.56c14.425 0 47.44-28.715 49.988-38.798.986-3.9 2.06-18.4 2.496-35.053-1.61-18.685 7.26-67.032-52.47-67.032z" style="fill:#f8f38b"/>
    <path data-label="shadow" d="M150.935 91.541s-24.794 27.09-35.59 13.856c-20.766-25.455-14.236-9.126-36.597 6.715-5.124 3.63-32.077-15.04-32.173-18.539-.26-9.481 12.753-21.043 31.743-15.739 23.314 6.513 22.98 7.512 47.573-.499 11.877-1.653 16.352 7.943 25.044 14.206z" style="fill:#826500;fill-opacity:.045884"/>
    <path data-label="flush" d="M151.562 108.476c-.803 7.914-40.67 36.927-51.715 36.015-13.53-1.118-58.745-27.776-58.527-35.72.84-30.734 31.102 2.092 38.724-5.244 19.076-18.361 19.607-17.611 36.048-1.442 9.723 9.563 37.889-17.47 35.47 6.39z" style="fill:#f7ac9f;fill-opacity:.0917679"/>
    <g data-label="Mouth" style="fill:#cb1797">
      <g data-label="closed" style="fill:#cb1797">
        <path data-label="flesh" d="M95.104 139.635c-1.165.054-2.265.728-7.702 3.51-.52.265 5.64 2.867 12.598 2.867 6.957 0 13.118-2.602 12.598-2.868-5.437-2.781-6.537-3.455-7.702-3.509-.905-.042-1.852.29-4.896.29-3.044 0-3.99-.332-4.896-.29z" style="fill:#720c4b"/>
        <path data-label="lips" d="M94.28 139.098c-1.361.064-2.647.85-8.999 4.1-.608.311 6.59 3.352 14.719 3.35 8.129.002 15.327-3.038 14.719-3.35-6.352-3.25-7.638-4.036-8.998-4.1-1.059-.049-2.165.339-5.721.34-3.556-.001-4.662-.39-5.72-.34zm5.72 2.958c5.515 0 6.546-.136 7.946.296a156.323 156.323 0 0 0-7.946-.193c-3.228 0-5.96.09-7.946.193 1.4-.432 2.431-.296 7.946-.296z" style="fill:#cb1797"/>
      </g>
      <g data-label="open" style="fill:#cb1797">
        <path data-label="flesh" d="M94.275 136.666c-1.165.054-2.3 3.835-7.736 6.616-.52.266 6.504 6.77 13.461 6.77 6.957 0 13.843-6.4 13.323-6.666-5.437-2.782-6.64-6.597-7.805-6.651-.906-.043-2.474.151-5.518.152-3.044-.001-4.82-.264-5.725-.221z" style="fill:#720c4b"/>
        <path data-label="lips" d="M94.28 135.784c-1.361.063-2.647 4.165-8.999 7.415-.608.31 6.59 7.398 14.719 7.397 8.129 0 15.327-7.086 14.719-7.397-6.352-3.25-7.638-7.352-8.998-7.415-1.059-.05-2.165.338-5.721.339-3.556-.001-4.662-.389-5.72-.34zm5.72 2.129c5.515 0 9.049 8.542 10.984 5.889-2.746.631-6.521 1.92-10.984 1.92s-8.238-1.289-10.984-1.92c1.935 2.653 5.47-5.89 10.984-5.89z" style="fill:#cb1797"/>
      </g>
      <g data-label="smile" style="fill:#cb1797">
        <path data-label="flesh" d="M95.104 139.635c-1.165.054-5.683 1.313-11.218 1.263-.52.266 9.157 5.945 16.114 5.944 6.957 0 18.099-6.752 17.578-7.018-7.097 1.271-11.517-.135-12.682-.19-.905-.041-1.852.29-4.896.29-3.044 0-3.99-.331-4.896-.29z" style="fill:#720c4b"/>
        <path data-label="lips" d="M94.28 138.778c-1.361.063-5.679 3.09-13.723.417-.803.31 11.314 8.11 19.443 8.108 8.129.001 21.369-9.067 20.566-9.378-9.167 3.944-13.485.916-14.845.853-1.059-.05-2.165.7-5.721.701-3.556 0-4.662-.75-5.72-.7zm5.72 3.674c5.515 0 9.39-1.015 11.399-.583-2.85-.103-8.17 1.1-11.399 1.1-3.228 0-8.549-1.203-11.399-1.1 2.01-.432 5.884.583 11.399.583z" style="fill:#cb1797"/>
      </g>
    </g>
    <g data-label="nose">
      <path d="M110.943 126.368c.056 1.19-2.552-6.942-7.065-2.71-3.921 3.677-5 2.969-7.194.294-3.01-3.67-7.616 2.946-7.627 2.089-.037-2.929.741-5.645 6.792-8.73.308-.156 2.333-17.228 4.704-17.188 2.372.043 3.394 16.846 4.065 17.125 6.487 2.691 6.325 4.41 6.325 9.12z" style="fill:#fde880"/>
      <path d="M109.218 126.398c0 .943-1.183.091-2.801.091s-3.058.852-3.058-.091c0-.944 1.312-1.71 2.93-1.71 1.617 0 2.929.766 2.929 1.71zM97.372 126.028c0 .943-1.782.554-3.4.554-1.617 0-2.458.39-2.458-.554 0-.944 1.311-1.71 2.929-1.71 1.618 0 2.93.766 2.93 1.71z" style="fill:#9d7a00"/>
      <path d="M110.154 126.904c-.453.978-2.702-3.881-6.84 0-3.598 3.374-4.588 2.724-6.6.27-2.761-3.365-6.081-.006-6.625-.532-1.754-1.68 2.243-10.954 9.76-.252 9.466-9.867 11.06-1.118 10.607-.14z" style="fill:#e8de6a"/>
    </g>
    <g data-label="eye_right">
      <g data-label="ball">
        <path data-label="white" id="b" d="M114.448 98.894c-.114-5.72 3.895-9.71 10.85-10.184 9.737-.663 13.51.172 20.784 7.787 0 0 .674 4.98-7.42 9.779-6.411 3.8-23.907 7.912-24.214-7.382z" style="fill:#fff3ea"/>
        <g data-label="clip_group" clip-path="url(#c)">
          <g data-label="iris">
            <ellipse data-label="path5" cx="127.81" cy="100.241" rx="10.525" ry="10.799" style="fill:#9a57f9"/>
            <circle cx="127.896" cy="100.779" r="7.199" style="fill:#442457"/>
          </g>
          <path data-label="shadow" d="M147.1 101.36c-.043 3.39-7.776-4.791-18.807-4.791-11.032 0-17.954 5.855-17.954 2.464 0-3.39 8.37-12.392 19.4-12.392 8.512.345 17.485 4.498 17.361 14.718Z" style="fill:#1a023d;fill-opacity:.415655"/>
          <ellipse data-label="highlight" cx="133.762" cy="100.91" rx="2.686" ry="1.569" style="fill:#fff"/>
        </g>
      </g>
      <path data-label="crease" d="M114.052 87.181s12.16-2.184 17.706-1.354c5.547.83 12.094 3.628 12.094 3.628s-6.891-3.93-12.844-4.523c-5.952-.594-16.956 2.25-16.956 2.25z" style="fill:#573f33"/>
      <path data-label="lash_top" d="M110.95 95.398c.896-1.395 1.119-2.213 2.08-2.927 4.495-3.34 8.471-6.089 15.92-5.364 1.165.23 6.29-.415 7.47-1.353-1.444 1.305-.432 2.016.798 1.827 2.604-.4 4.608-1.49 4.608-1.49l-1.842 2.474c1.616.856 1.896.435 4.089.012l-1.4 1.21c1.213 1.449 3.136.013 6.263-.701-2.002 1.504-3.11 1.915-3.352 2.926.488.943 4.172 5.463 6.21 5.685 2.039.222-4.037.025-5.646-1.102-1.61-1.128-1.559-2.093-4.938-4.016-3.38-1.923-9.854-3.36-15.097-3.117-8.131.377-6.951 1.77-15.163 5.936z" style="fill:#39251d"/>
      <path data-label="lash_bot" d="M126.963 109.557c2.197-.104 3.67-.546 6.952-1.535 3.282-.99 6.235-2.82 7.383-3.843l2.895-1.342-3.94 2.805 1.052.16c-2.462.643-3.133.956-5.042 2.106l.87.412c-1.708-.128-1.296-.106-4.919.768l.615.261c-1.563-.24-6.811 2.611-12.515.277 0 0 4.453.038 6.65-.068z" style="fill:#39251d"/>
    </g>
    <g data-label="eye_left">
      <g data-label="ball">
        <path data-label="white" id="a" d="M85.552 98.894c.115-5.72-3.895-9.71-10.85-10.184-9.737-.663-13.51.172-20.784 7.787 0 0-.673 4.98 7.421 9.779 6.411 3.8 23.907 7.912 24.213-7.382z" style="fill:#fff3ea"/>
        <g data-label="clip_group" clip-path="url(#d)">
          <g data-label="iris">
            <ellipse cx="72.191" cy="100.241" rx="10.525" ry="10.799" style="fill:#9a57f9"/>
            <circle cx="72.104" cy="100.779" r="7.199" style="fill:#442457"/>
          </g>
          <path data-label="shadow" d="M52.9 101.36c.043 3.39 7.777-4.791 18.808-4.791 11.031 0 17.953 5.855 17.953 2.464 0-3.39-8.369-12.392-19.4-12.392-8.511.345-17.485 4.498-17.36 14.718z" style="fill:#1a023d;fill-opacity:.415655"/>
          <ellipse data-label="highlight" cx="66.239" cy="100.91" rx="2.686" ry="1.569" style="fill:#fff"/>
        </g>
      </g>
      <path data-label="crease" d="M85.949 87.181s-12.16-2.184-17.707-1.354c-5.546.83-12.094 3.628-12.094 3.628s6.892-3.93 12.844-4.523c5.953-.594 16.957 2.25 16.957 2.25z" style="fill:#573f33"/>
      <path data-label="lash_top" d="M89.05 95.398c-.896-1.395-1.119-2.213-2.08-2.927-4.495-3.34-8.47-6.089-15.92-5.364-1.165.23-6.289-.415-7.47-1.353 1.444 1.305.432 2.016-.797 1.827-2.605-.4-4.608-1.49-4.608-1.49l1.841 2.474c-1.616.856-1.896.435-4.088.012l1.4 1.21c-1.214 1.449-3.137.013-6.264-.701 2.002 1.504 3.111 1.915 3.353 2.926-.488.943-4.173 5.463-6.211 5.685-2.038.222 4.037.025 5.647-1.102 1.609-1.128 1.558-2.093 4.938-4.016s9.853-3.36 15.096-3.117c8.131.377 6.951 1.77 15.164 5.936z" style="fill:#39251d"/>
      <path data-label="lash_bot" d="M73.037 109.557c-2.196-.104-3.67-.546-6.952-1.535-3.282-.99-6.234-2.82-7.382-3.843l-2.895-1.342 3.94 2.805-1.052.16c2.461.643 3.132.956 5.041 2.106l-.87.412c1.709-.128 1.296-.106 4.92.768l-.616.261c1.564-.24 6.812 2.611 12.516.277 0 0-4.453.038-6.65-.068z" style="fill:#39251d"/>
    </g>
    <g data-label="ear_left">
      <path d="M36.395 81.965c2.446-.087 7.295 7.082 11.115 9.893.344 13.004 1.086 24.534 1.862 30.84-4-3.466-8.586-.557-8.744-6.639-.182-7.022-8.17-7.686-5.72-31.494.187-1.824.718-2.573 1.487-2.6z" style="fill:#e7e47e"/>
      <path d="M37.907 105.851c3.733 7.214 3.123 8.458 6.028 9.966 7.085 3.677 3.11-2.947 1.684-8.468-.278-1.074 1.586-1.44 1.77-2.61 1.596-10.155-3.96-11.172-5.926-13.788-5.147-6.845-7.736 6.823-3.556 14.9z" style="fill:#d1d870"/>
      <path d="M41.758 107.325c-2.46 4.37 3.371 10.514 4.924 9.629 2.857-1.63.886-4.21-.94-7.861-1.6-3.206 1.676-3.231 1.706-4.548.084-3.693.617-8.016-2.963-8.66-3.58-.643-.266 7.071-2.727 11.44zM35.913 96.812c.055 3.244 2.083 9.48 2.98 9.265.8-.194.29-3.841-1.049-6.85-1.657-3.727 2.212-10.46.26-10.157-1.397.216-2.239 5.06-2.191 7.742z" style="fill:#c4ca40"/>
    </g>
    <g data-label="brows">
      <path data-label="brow_right" d="M110.391 80.982c1.575-3.617 14.622-4.75 22.193-5.487 7.57-.737 15.208 3.975 15.208 3.975s-7.364-2.478-14.198-1.88c-6.833.598-23.203 3.755-23.203 3.392z" style="fill:#724297"/>
      <path data-label="brow_left" d="M89.609 80.982c-1.575-3.617-14.622-4.75-22.192-5.487-7.57-.737-15.208 3.975-15.208 3.975s7.364-2.478 14.197-1.88c6.833.598 23.203 3.755 23.203 3.392z" style="fill:#724297"/>
    </g>
  </g>
  <g data-label="Hair_mid">
    <path d="M99.682 2.176C86.535-3.278 44.004 14.628 39.603 36.017c-6.471 31.459 6.18 78.923 8.249 55.84 1.665-18.584-7.374-67.178 52.502-67.178 59.876 0 50.813 48.594 52.478 67.178 2.069 23.083 14.745-24.381 8.273-55.84-4.4-21.389-49.07-43.045-61.423-33.841Z" style="fill:#5949e6"/>
    <path d="M117.437 15.057c14.847-.02 26.557 9.813 35.194 19.844 8.637 10.03 22.458 130.313 22.458 130.313L153.97 184l7.702-37.605c-4.364-44.005-8.293-98.927-31.884-105.935-22.888-6.798-36.38 9.86-43.201-10.97-4.092-12.496 16.004-14.411 30.851-14.433Z" style="fill:#e6a8fc"/>
    <path d="M157.898 64.205c-3.059-7.44-5.596-54.687-55.842-46.267C76.425 22.233 82.843 4.619 97.63 4.636c17.732.02 30.661 4.034 53.218 19.014 18.184 12.076 26.173 86.437 27.197 126.192.275 10.677-35.945 27.405-34.758 26.096 24.442-26.948 17.67-104.293 14.611-111.733z" style="fill:#8e95f5"/>
  </g>
  <g data-label="Hair_front">
    <path d="M54.94 28.446c-1.936 1.161-22.835 23.608-22.835 23.608l-9.676 119.59 27.479 19.352-5.418-40.638Z" style="fill:#847eff"/>
    <path d="m97.015 39.92-1.843-9.1s5.832-16.282-4.354-23.06C80.633.985 41.978 18.175 41.978 18.175l-8.906 53.231-2.422 94.457 27.772 17.78-10.318-27.308-6.324-66.158 8.159-33.109C62.68 46.433 78.379 37.324 97.015 39.92Z" style="fill:#ab8afc"/>
    <path d="M59.487 7.813 51.359 35.29l.278-.061-17.38 73.107 19.75 28.688-20.378 42.443 17.96.63 5.648-44.935s-3.997-12.212-7.28-23.706c-2.747-9.613 19.381-59.541 27.03-75.95l3.786-.798 16.242 5.21s3.76-14.45-2.503-21.658C88.25 11.053 59.487 7.813 59.487 7.813Z" style="fill:#bab5ff"/>
  </g>
  <g data-label="Ear_right">
    <path d="M163.605 81.965c-2.445-.087-7.294 7.082-11.114 9.893-.344 13.004-1.087 24.534-1.863 30.84 4-3.466 8.587-.557 8.744-6.639.182-7.022 8.17-7.686 5.721-31.494-.188-1.824-.718-2.573-1.488-2.6z" style="fill:#e7e47e"/>
    <path d="M162.094 105.851c-3.733 7.214-3.123 8.458-6.028 9.966-7.086 3.677-3.11-2.947-1.684-8.468.277-1.074-1.587-1.44-1.77-2.61-1.597-10.155 3.959-11.172 5.926-13.788 5.146-6.845 7.735 6.823 3.556 14.9z" style="fill:#d1d870"/>
    <path d="M158.242 107.325c2.461 4.37-3.37 10.514-4.923 9.629-2.858-1.63-.886-4.21.939-7.861 1.601-3.206-1.676-3.231-1.706-4.548-.083-3.693-.616-8.016 2.963-8.66 3.58-.643.266 7.071 2.727 11.44zM164.088 96.812c-.056 3.244-2.083 9.48-2.98 9.265-.8-.194-.29-3.841 1.048-6.85 1.658-3.727-2.212-10.46-.26-10.157 1.397.216 2.24 5.06 2.192 7.742z" style="fill:#c4ca40"/>
  </g>
</svg>
