<svg xmlns="http://www.w3.org/2000/svg" viewBox="0 0 293 293"><style>html.dark {.a{fill:#fff}}</style><path d="M235.582 34.506c-8.329.195-16.96 3.398-24.291 8.806-20.714 15.285-30.414 28.862-34.969 33.477-2.277 2.307-1.994 1.895-2.406 1.979-5.224-.396-6.464-.571-11.094-1.817-19.65-3.75-40.548-1.266-53.062.887-5.825 1.004-7.016.635-6.82.781-.038-.057.012.005-.03-.058-3.293-5.018-11.962-19.88-34.185-34.68-8.61-5.733-19.202-8.967-29.44-5.633-10.238 3.334-16.695 12.333-19.637 21.334-5.882 18.003-2.94 40.346 7.288 66.828 7.52 19.47 6.595 35.226 5.226 54.293-1.369 19.067-3.28 41.407 5.639 67.272 2.813 8.153 11.703 12.482 19.857 9.67 8.156-2.811 12.49-11.7 9.678-19.856-6.717-19.477-5.402-35.53-4.016-54.848 1.387-19.318 2.743-41.936-7.242-67.789-8.555-22.151-8.664-39.976-6.738-45.87.105-.324.077-.197.162-.428.537.247.798.283 1.912 1.025 18.17 12.1 16.537 16.565 25.379 25.822 3.204 3.355 7.6 10.17 15.236 12.697 7.637 2.529 14.418 1.707 23.04.221 12.338-2.127 20.644-2.595 43.279-.693 7.731 1.9 14.702 2.898 21.798 1.455 7.822-1.59 14.152-6.346 18.403-10.652 8.5-8.613 13.774-17.355 31.293-30.282 5.537-4.086 5.889-3.008 6.267-2.85.38.16 3.064 2.253 5.24 7.782 4.354 11.058 4.641 32.094-1.195 45.885-4.787 11.312-2.936 21.746-1.218 30.998 1.717 9.252 3.904 18.067 4.54 26.463 1.273 16.791-.37 31.367-28.331 50.84-7.081 4.93-8.824 14.666-3.891 21.746 4.93 7.076 14.662 8.818 21.74 3.89 34.972-24.354 43.42-55.145 41.625-78.838-.898-11.846-3.536-22.054-4.974-29.8-1.439-7.747-1.077-12.289-.723-13.125 9.637-22.775 9.646-48.802 1.498-69.5-4.074-10.35-10.685-20.302-22.227-25.143-2.884-1.21-5.937-1.926-9.064-2.186h-.002a33.464 33.464 0 0 0-3.545-.103zm-79.242 89.392c-9.343-.013-19.061 2.01-27.569 5.764-5.235 2.31-10.046 5.292-13.863 9.494s-6.598 10.133-6.14 16.55c.751 10.532 8.854 16.975 17.568 21.423 8.714 4.448 19.345 7.078 30.2 7.078 9.58 0 21.391-.25 32.368-3.816 10.977-3.567 21.948-12.097 24.213-25.977.7-4.292-.372-9.21-2.937-12.926-2.565-3.715-6.17-6.348-10.438-8.496-8.537-4.296-20.275-6.965-37.013-8.756a60.97 60.97 0 0 0-6.39-.338zm4.97 18.176c15.346 1.676 25.449 4.405 30.393 6.893 2.475 1.246 3.495 2.336 3.72 2.656-1.137 6.745-4.69 9.372-12.04 11.76-6.1 1.982-14.232 2.692-21.988 2.88.167-.293.321-.582.462-.865 1.743-3.485 2.43-7.167 2.43-11.154s-.687-7.669-2.43-11.154a18.1 18.1 0 0 0-.546-1.016zm-24.187 3.483c-.975 2.749-1.383 5.628-1.383 8.687 0 2.839.35 5.523 1.18 8.092a37.874 37.874 0 0 1-2.457-1.139c-5.855-2.989-7.846-6.65-7.854-6.761-.066-.93.082-1.655 1.536-3.254 1.452-1.6 4.248-3.567 7.847-5.155.368-.162.748-.316 1.131-.47zm47.42 54.925c-7.627-.025-16.481 1.427-22.285 4.15-.934 2.767 7.114 22.497 18.72 25.684 9.27-1.257 20.387-15.623 18.268-25.683-1.455-2.8-7.538-4.127-14.703-4.15z" class="a" fill="#000" style="stroke-width:3.77953;stroke-linecap:round;"/></svg>